<svg id="Layer_1" data-name="Layer 1" xmlns="http://www.w3.org/2000/svg" viewBox="0 0 40 40"><defs><style>.cls-1{fill:#3d3d3d;}</style></defs><title>Icons_Logos_UXElements</title><path class="cls-1" d="M13.88,4.26H26.13c.32,0,.65.12,1,.14a8.16,8.16,0,0,1,8,8q.18,7.11,0,14.22a8,8,0,0,1-8,8q-7.11.18-14.22,0a8,8,0,0,1-8-8c-.13-4.79-.12-9.58,0-14.37a8,8,0,0,1,6.6-7.75C12.27,4.45,13.08,4.38,13.88,4.26ZM20,32h0c2.24,0,4.49.06,6.73,0a5.5,5.5,0,0,0,4.61-2.31,6,6,0,0,0,1-3.46c0-4.36.08-8.72,0-13.08-.07-3.73-2.16-5.85-5.88-5.93q-6.5-.14-13,0c-3.75.08-5.83,2.16-5.91,5.89q-.14,6.54,0,13.08c.08,3.62,2.22,5.71,5.83,5.83C15.63,32,17.83,32,20,32Z"/><path class="cls-1" d="M12.15,19.52A7.85,7.85,0,1,1,20,27.41,7.8,7.8,0,0,1,12.15,19.52ZM20,24.64a5.07,5.07,0,1,0-5-5.12A5,5,0,0,0,20,24.64Z"/><path class="cls-1" d="M30,11.42a1.84,1.84,0,0,1-1.85,1.83,1.89,1.89,0,0,1-1.84-1.87,1.84,1.84,0,0,1,1.88-1.8A1.77,1.77,0,0,1,30,11.42Z"/></svg>