<svg id="Layer_1" data-name="Layer 1" xmlns="http://www.w3.org/2000/svg" viewBox="0 0 40 40"><defs><style>.cls-1{fill:#fff;}</style></defs><title>Icons_Logos_UXElements</title><path class="cls-1" d="M36.28,7.32H32.1V4.52a2.15,2.15,0,0,0-4.3,0v2.8H12.14V4.52a2.15,2.15,0,1,0-4.3,0v2.8H4a1.5,1.5,0,0,0-1.5,1.5v27A1.5,1.5,0,0,0,4,37.3H36.28a1.5,1.5,0,0,0,1.5-1.5v-27A1.5,1.5,0,0,0,36.28,7.32ZM28.8,9.42V4.52a1.15,1.15,0,0,1,2.3,0v6.6a1.15,1.15,0,1,1-2.3,0Zm-20,0V4.52a1.15,1.15,0,1,1,2.3,0v6.6a1.15,1.15,0,1,1-2.3,0ZM36.78,35.8a.5.5,0,0,1-.5.5H4a.5.5,0,0,1-.5-.5V15.51a1.48,1.48,0,0,0,.5.09H36.28a1.48,1.48,0,0,0,.5-.09Z"/></svg>