<?xml version="1.0" encoding="utf-8"?>
<!-- Generator: Adobe Illustrator 21.0.0, SVG Export Plug-In . SVG Version: 6.00 Build 0)  -->
<svg version="1.1" id="Layer_1" xmlns="http://www.w3.org/2000/svg" xmlns:xlink="http://www.w3.org/1999/xlink" x="0px" y="0px"
	 viewBox="0 0 40 40" style="enable-background:new 0 0 40 40;" xml:space="preserve">
<style type="text/css">
	.st0{fill:#FFFFFF;}
</style>
<title>Icons_Logos_UXElements</title>
<g>
	<path class="st0" d="M20,38.5c-4.3,0-8.8-1.2-8.8-3.4c0-1.9,3.1-3.2,7.8-3.4l0,1c-4.4,0.2-6.8,1.3-6.8,2.4c0,1,3.1,2.4,7.8,2.4
		c4.7,0,7.8-1.4,7.8-2.3c0-1-2.7-2.2-6.7-2.4l0-1c3.7,0.1,7.7,1.3,7.7,3.4C28.8,37.2,24.3,38.5,20,38.5z"/>
</g>
<g>
	<path class="st0" d="M18.6,35.1c-0.3,0-0.5-0.2-0.5-0.5c0-0.2,0.1-0.3,0.2-0.4c0.1-0.3,0.1-1.1,0.1-1.9v-8c0-1.8-0.7-2.3-2.1-3.1
		c-1.1-0.7-2.5-1.6-4-3.4c-3.5-4.4,0.4-15,0.6-15.4c0.1-0.3,0.4-0.4,0.6-0.3s0.4,0.4,0.3,0.6c0,0.1-3.9,10.5-0.7,14.5
		c1.4,1.8,2.7,2.6,3.8,3.2c1.5,0.9,2.6,1.6,2.6,4v7.9c0,1.4-0.1,2.3-0.4,2.6C18.9,35,18.7,35.1,18.6,35.1z"/>
</g>
<g>
	<path class="st0" d="M21.3,35.1c-0.1,0-0.3-0.1-0.4-0.2c-0.1-0.1-0.4-0.4-0.3-2.7v-7.9c0-2.4,1.1-3.1,2.6-4
		c1.1-0.7,2.4-1.5,3.8-3.2c3.1-4-0.7-14.4-0.7-14.5c-0.1-0.3,0-0.5,0.3-0.6c0.3-0.1,0.5,0,0.6,0.3c0.2,0.4,4.1,11,0.6,15.4
		c-1.5,1.9-2.9,2.8-4,3.4c-1.4,0.9-2.1,1.3-2.1,3.1v7.9c0,0.7,0,1.7,0.1,2c0.1,0.1,0.2,0.2,0.2,0.4C21.8,34.9,21.6,35.1,21.3,35.1z
		 M21.3,34.1L21.3,34.1L21.3,34.1z M21.3,34.1L21.3,34.1L21.3,34.1z"/>
</g>
<g>
	<path class="st0" d="M20,4.1c-2.2,0-7.2-0.2-7.2-1.6s5-1.6,7.2-1.6s7.2,0.2,7.2,1.6S22.1,4.1,20,4.1z M14.1,2.5
		c0.8,0.3,2.8,0.6,5.9,0.6c3.1,0,5-0.3,5.8-0.6C25,2.2,23.1,1.9,20,1.9C16.9,1.9,14.9,2.2,14.1,2.5z"/>
</g>
<g>
	<path class="st0" d="M27.4,10.7c0-0.2-3.3-0.4-7.4-0.4s-7.4,0.2-7.4,0.4c-0.1,2.2-0.1,4.3,0.9,5.7c1,1.4,2.3,2.5,3.8,3.3
		c0.8,0.6,1.7,1,2.7,1.2c0.9-0.1,1.8-0.5,2.5-1c1.5-0.9,2.9-2,4-3.5C27.5,15.1,27.5,12.9,27.4,10.7z"/>
</g>
</svg>
