<?xml version="1.0" encoding="utf-8"?>
<!-- Generator: Adobe Illustrator 21.0.0, SVG Export Plug-In . SVG Version: 6.00 Build 0)  -->
<svg version="1.1" id="Layer_1" xmlns="http://www.w3.org/2000/svg" xmlns:xlink="http://www.w3.org/1999/xlink" x="0px" y="0px"
	 viewBox="0 0 40 40" style="enable-background:new 0 0 40 40;" xml:space="preserve">
<style type="text/css">
	.st0{fill:#3D3D3D;}
	.st1{fill:#FFFFFF;}
	.st2{enable-background:new    ;}
</style>
<title>Icons_Logos_UXElements</title>
<g>
	<path class="st0" d="M35.4,33h-24l0,0V10.7l0,0h25.2c0.6,0,1,0.4,1,1v19.1C37.6,32,36.6,33,35.4,33z"/>
</g>
<g>
	<path class="st0" d="M35.4,33.5H10.9V10.2h25.7c0.8,0,1.5,0.7,1.5,1.5v19.1C38.1,32.3,36.9,33.5,35.4,33.5z M11.9,32.5h23.5
		c0.9,0,1.7-0.8,1.7-1.7V11.7c0-0.3-0.2-0.5-0.5-0.5H11.9V32.5z"/>
</g>
<g>
	<path class="st1" d="M35.8,33h-31c-1.3,0-2.4-1.1-2.4-2.4V8c0-0.6,0.4-1,1-1h29.1c0.6,0,1,0.4,1,1v22.6c-0.1,1.2,0.8,2.3,2,2.4
		C35.7,33,35.7,33,35.8,33z"/>
	<path class="st0" d="M35.8,33.5C35.8,33.5,35.7,33.5,35.8,33.5l-31,0c-1.6,0-2.9-1.3-2.9-2.9V8c0-0.8,0.7-1.5,1.5-1.5h29.1
		C33.4,6.5,34,7.2,34,8v22.6c-0.1,1,0.6,1.8,1.6,1.9c0,0,0.1,0,0.1,0h0.1L35.8,33.5C35.8,33.5,35.8,33.5,35.8,33.5z M3.4,7.5
		C3.1,7.5,2.9,7.7,2.9,8v22.6c0,1.1,0.9,1.9,1.9,1.9h28.8c-0.5-0.5-0.7-1.2-0.6-2L33,8c0-0.3-0.2-0.5-0.5-0.5H3.4z"/>
</g>
<g class="st2">
	<path class="st0" d="M10.7,10h1.1l1.5,2.5h0V10h0.8v3.6h-1l-1.6-2.5h0v2.5h-0.8V10z"/>
	<path class="st0" d="M14.8,10h2.4v0.7h-1.6v0.7h1.6v0.7h-1.6v0.7h1.7v0.7h-2.5V10z"/>
	<path class="st0" d="M17.6,10h0.9l0.6,2.3h0l0.7-2.3h0.7l0.7,2.4h0l0.6-2.4h0.8l-1,3.6H21l-0.8-2.5h0l-0.8,2.5h-0.7L17.6,10z"/>
	<path class="st0" d="M24.8,10.9c-0.1-0.1-0.2-0.1-0.3-0.2s-0.2-0.1-0.3-0.1c-0.1,0-0.1,0-0.2,0s-0.1,0-0.2,0.1
		c-0.1,0-0.1,0.1-0.1,0.1c0,0-0.1,0.1-0.1,0.2c0,0.1,0,0.2,0.1,0.2c0.1,0.1,0.2,0.1,0.3,0.1c0.1,0,0.3,0.1,0.4,0.1
		c0.1,0,0.3,0.1,0.4,0.2c0.1,0.1,0.2,0.2,0.3,0.3s0.1,0.3,0.1,0.5c0,0.2,0,0.4-0.1,0.5s-0.2,0.3-0.3,0.4c-0.1,0.1-0.3,0.2-0.4,0.2
		c-0.2,0-0.3,0.1-0.5,0.1c-0.2,0-0.4,0-0.6-0.1c-0.2-0.1-0.4-0.2-0.6-0.3l0.6-0.6c0.1,0.1,0.2,0.2,0.3,0.2c0.1,0.1,0.3,0.1,0.4,0.1
		c0.1,0,0.1,0,0.2,0c0.1,0,0.1,0,0.2-0.1c0.1,0,0.1-0.1,0.1-0.1c0,0,0-0.1,0-0.2c0-0.1,0-0.2-0.1-0.3s-0.2-0.1-0.3-0.2
		c-0.1,0-0.3-0.1-0.4-0.1c-0.1,0-0.3-0.1-0.4-0.2c-0.1-0.1-0.2-0.2-0.3-0.3c-0.1-0.1-0.1-0.3-0.1-0.5c0-0.2,0-0.4,0.1-0.5
		c0.1-0.1,0.2-0.3,0.3-0.4c0.1-0.1,0.3-0.2,0.4-0.2c0.2,0,0.3-0.1,0.5-0.1c0.2,0,0.4,0,0.6,0.1c0.2,0.1,0.4,0.2,0.5,0.3L24.8,10.9z"
		/>
</g>
<g>
	<rect x="4.2" y="16.7" class="st0" width="27.4" height="1.5"/>
</g>
<g>
	<rect x="4.2" y="20.3" class="st0" width="27.4" height="1.5"/>
</g>
<g>
	<rect x="4.2" y="23.9" class="st0" width="27.4" height="1.5"/>
</g>
<g>
	<rect x="4.2" y="27.5" class="st0" width="27.4" height="1.5"/>
</g>
</svg>
