<?xml version="1.0" encoding="utf-8"?>
<!-- Generator: Adobe Illustrator 21.0.0, SVG Export Plug-In . SVG Version: 6.00 Build 0)  -->
<svg version="1.1" id="Layer_1" xmlns="http://www.w3.org/2000/svg" xmlns:xlink="http://www.w3.org/1999/xlink" x="0px" y="0px"
	 viewBox="0 0 20 20" style="enable-background:new 0 0 20 20;" xml:space="preserve">
<style type="text/css">
	.st0{fill:#3D3D3D;}
</style>
<title>Icons_Logos_UXElements</title>
<g>
	<path class="st0" d="M1.4,19.1c-0.1,0-0.3,0-0.4-0.1c-0.2-0.2-0.2-0.5,0-0.7L9.3,10L1.1,1.8c-0.2-0.2-0.2-0.5,0-0.7s0.5-0.2,0.7,0
		l8.6,8.6c0.2,0.2,0.2,0.5,0,0.7l-8.6,8.6C1.7,19,1.5,19.1,1.4,19.1z"/>
</g>
<g>
	<path class="st0" d="M18.5,19.1c-0.1,0-0.3,0-0.4-0.1l-8.6-8.6c-0.2-0.2-0.2-0.5,0-0.7l8.6-8.6c0.2-0.2,0.5-0.2,0.7,0
		s0.2,0.5,0,0.7L10.6,10l8.2,8.2c0.2,0.2,0.2,0.5,0,0.7C18.7,19,18.6,19.1,18.5,19.1z"/>
</g>
</svg>
