<?xml version="1.0" encoding="utf-8"?>
<!-- Generator: Adobe Illustrator 21.0.0, SVG Export Plug-In . SVG Version: 6.00 Build 0)  -->
<svg version="1.1" id="Layer_1" xmlns="http://www.w3.org/2000/svg" xmlns:xlink="http://www.w3.org/1999/xlink" x="0px" y="0px"
	 viewBox="0 0 20 20" style="enable-background:new 0 0 20 20;" xml:space="preserve">
<style type="text/css">
	.st0{fill:#3D3D3D;}
</style>
<title>Icons_Logos_UXElements</title>
<g>
	<path class="st0" d="M8,14.6c-3.4,0-6.2-2.8-6.2-6.2C1.8,5,4.6,2.3,8,2.3s6.2,2.8,6.2,6.2C14.2,11.9,11.4,14.6,8,14.6z M8,3.3
		c-2.9,0-5.2,2.3-5.2,5.2c0,2.9,2.3,5.2,5.2,5.2s5.2-2.3,5.2-5.2C13.2,5.6,10.9,3.3,8,3.3z"/>
</g>
<g>
	<path class="st0" d="M16.8,17.7c-0.1,0-0.3,0-0.4-0.1l-4.8-4.8c-0.2-0.2-0.2-0.5,0-0.7s0.5-0.2,0.7,0l4.8,4.8
		c0.2,0.2,0.2,0.5,0,0.7C17,17.7,16.9,17.7,16.8,17.7z"/>
</g>
</svg>
