<?xml version="1.0" encoding="utf-8"?>
<!-- Generator: Adobe Illustrator 21.0.0, SVG Export Plug-In . SVG Version: 6.00 Build 0)  -->
<svg version="1.1" id="Layer_1" xmlns="http://www.w3.org/2000/svg" xmlns:xlink="http://www.w3.org/1999/xlink" x="0px" y="0px"
	 viewBox="0 0 20 20" style="enable-background:new 0 0 20 20;" xml:space="preserve">
<style type="text/css">
	.st0{fill:#3D3D3D;}
</style>
<title>Icons_Logos_UXElements</title>
<g>
	<path class="st0" d="M6.6,19.1c-0.1,0-0.3,0-0.4-0.1c-0.2-0.2-0.2-0.5,0-0.7l7.8-7.8c0,0,0,0,0,0c0.1-0.1,0.2-0.2,0.2-0.4
		c0-0.1-0.1-0.3-0.2-0.4L6.3,1.8c-0.2-0.2-0.2-0.5,0-0.7s0.5-0.2,0.7,0l7.8,7.8c0.3,0.3,0.5,0.7,0.5,1.1c0,0.4-0.2,0.8-0.4,1.1
		c0,0,0,0,0,0L7,18.9C6.9,19,6.8,19.1,6.6,19.1z M14.5,10.7L14.5,10.7L14.5,10.7z"/>
</g>
</svg>
