<?xml version="1.0" encoding="utf-8"?>
<!-- Generator: Adobe Illustrator 21.0.0, SVG Export Plug-In . SVG Version: 6.00 Build 0)  -->
<svg version="1.1" id="Layer_1" xmlns="http://www.w3.org/2000/svg" xmlns:xlink="http://www.w3.org/1999/xlink" x="0px" y="0px"
	 viewBox="0 0 40 40" style="enable-background:new 0 0 40 40;" xml:space="preserve">
<style type="text/css">
	.st0{fill:#FFFFFF;}
	.st1{fill:#3D3D3D;}
</style>
<title>Icons_Logos_UXElements</title>
<g>
	<path class="st0" d="M4,9.1h32.3c0.6,0,1,0.4,1,1V36c0,0.6-0.4,1-1,1H4c-0.6,0-1-0.4-1-1V10.1C3,9.6,3.5,9.1,4,9.1z"/>
	<path class="st1" d="M36.3,37.5H4c-0.9,0-1.5-0.6-1.5-1.5V10.1c0-0.8,0.7-1.5,1.5-1.5h32.3c0.9,0,1.5,0.6,1.5,1.5V36
		C37.8,36.9,37.2,37.5,36.3,37.5z M4,9.6c-0.2,0-0.5,0.3-0.5,0.5V36c0,0.3,0.2,0.5,0.5,0.5h32.3c0.3,0,0.5-0.2,0.5-0.5V10.1
		c0-0.3-0.2-0.5-0.5-0.5H4z"/>
</g>
<g>
	<path class="st0" d="M4,8h32.3c0.6,0,1,0.4,1,1v5.3c0,0.6-0.4,1-1,1H4c-0.6,0-1-0.4-1-1V9C3,8.5,3.5,8,4,8z"/>
	<path class="st1" d="M36.3,15.8H4c-0.9,0-1.5-0.6-1.5-1.5V9c0-0.8,0.7-1.5,1.5-1.5h32.3c0.9,0,1.5,0.6,1.5,1.5v5.3
		C37.8,15.2,37.2,15.8,36.3,15.8z M4,8.5C3.8,8.5,3.5,8.8,3.5,9v5.3c0,0.3,0.2,0.5,0.5,0.5h32.3c0.3,0,0.5-0.2,0.5-0.5V9
		c0-0.3-0.2-0.5-0.5-0.5H4z"/>
</g>
<g>
	<path class="st1" d="M4,8h32.3c0.6,0,1,0.4,1,1v5.3c0,0.6-0.4,1-1,1H4c-0.6,0-1-0.4-1-1V9C3,8.5,3.5,8,4,8z"/>
</g>
<g>
	<path class="st0" d="M10,3.1L10,3.1c0.9,0,1.7,0.7,1.7,1.6v6.6c0,0.9-0.7,1.6-1.6,1.6l0,0c-0.9,0-1.6-0.7-1.6-1.6V4.7
		C8.3,3.8,9.1,3.1,10,3.1z"/>
	<path class="st1" d="M10.1,13.4c-1.2,0-2.1-0.9-2.1-2.1V4.8c-0.1-0.5,0-1,0.3-1.4c0.4-0.5,1-0.8,1.7-0.8c1.2,0,2.2,0.9,2.2,2.1v6.6
		C12.2,12.5,11.3,13.4,10.1,13.4z M10,3.6C9.7,3.6,9.3,3.7,9.1,4C9,4.2,8.9,4.4,9,4.6l0,0.1v6.6c0,0.6,0.5,1.1,1.1,1.1
		s1.1-0.5,1.1-1.1V4.7C11.2,4.1,10.7,3.6,10,3.6z"/>
</g>
<g>
	<path class="st0" d="M29.9,3.1L29.9,3.1c0.9,0,1.6,0.7,1.6,1.6v6.6c0,0.9-0.7,1.6-1.6,1.6l0,0c-0.9,0-1.6-0.7-1.6-1.6V4.7
		C28.3,3.8,29,3.1,29.9,3.1z"/>
	<path class="st1" d="M29.9,13.4c-1.2,0-2.1-0.9-2.1-2.1V4.7c0-1.2,0.9-2.1,2.1-2.1S32,3.5,32,4.7v6.6C32,12.5,31.1,13.4,29.9,13.4z
		 M29.9,3.6c-0.6,0-1.1,0.5-1.1,1.1v6.6c0,0.6,0.5,1.1,1.1,1.1s1.1-0.5,1.1-1.1V4.7C31,4.1,30.5,3.6,29.9,3.6z"/>
</g>
</svg>
