<?xml version="1.0" encoding="utf-8"?>
<!-- Generator: Adobe Illustrator 21.0.0, SVG Export Plug-In . SVG Version: 6.00 Build 0)  -->
<svg version="1.1" id="Layer_1" xmlns="http://www.w3.org/2000/svg" xmlns:xlink="http://www.w3.org/1999/xlink" x="0px" y="0px"
	 viewBox="0 0 40 40" style="enable-background:new 0 0 40 40;" xml:space="preserve">
<style type="text/css">
	.st0{fill:#FFFFFF;}
	.st1{fill:#3D3D3D;}
</style>
<title>Icons_Logos_UXElements</title>
<g>
	<path class="st0" d="M12.2,32.3l-4.4-4.4c-0.4-0.4-0.4-1,0-1.4L27.4,6.8l0,0l5.8,5.8l0,0L13.6,32.3C13.2,32.6,12.6,32.6,12.2,32.3z
		"/>
	<path class="st1" d="M12.9,33c-0.4,0-0.8-0.2-1.1-0.4l0,0c0,0,0,0,0,0l-4.4-4.4c-0.6-0.6-0.6-1.5,0-2.1l20-20l6.5,6.5l-20,20
		C13.7,32.9,13.3,33,12.9,33z M27.4,7.5L8.2,26.8C8,27,8,27.3,8.2,27.5l4.4,4.4c0.2,0.2,0.5,0.2,0.7,0l19.3-19.3L27.4,7.5z"/>
</g>
<g>
	<path class="st0" d="M34,11.8L28.2,6l0,0l2.6-2.6c1-1,2.7-1,3.7,0l0,0l2.1,2.1c1,1,1,2.7,0,3.7l0,0L34,11.8L34,11.8L34,11.8z"/>
	<path class="st1" d="M34,12.5l-0.4-0.3L27.5,6l2.9-2.9c1.2-1.2,3.2-1.2,4.4,0l2.1,2.1c0.6,0.6,0.9,1.4,0.9,2.2
		c0,0.8-0.3,1.6-0.9,2.2L34,12.5z M28.9,6l5.1,5.1l2.2-2.2c0.4-0.4,0.6-0.9,0.6-1.5c0-0.6-0.2-1.1-0.6-1.5l-2.1-2.1
		c-0.8-0.8-2.1-0.8-3,0L28.9,6z"/>
</g>
<g>
	<polygon class="st0" points="2.8,37.3 13.4,32.5 7.6,26.7 	"/>
	<path class="st1" d="M2.8,37.8c-0.1,0-0.3-0.1-0.4-0.1c-0.1-0.1-0.2-0.4-0.1-0.6l4.8-10.6c0.1-0.1,0.2-0.3,0.4-0.3
		c0.2,0,0.3,0,0.4,0.1l5.8,5.8c0.1,0.1,0.2,0.3,0.1,0.4c0,0.2-0.1,0.3-0.3,0.4L3,37.7C2.9,37.8,2.8,37.8,2.8,37.8z M7.7,27.6l-4,8.7
		l8.7-4L7.7,27.6z"/>
</g>
<g>
	<polygon class="st1" points="2.8,37.3 6.3,35.8 4.3,33.7 	"/>
</g>
<g>
	<polygon class="st1" points="31.5,9.7 11.1,30.1 13.4,32.5 33.2,12.6 	"/>
</g>
<g>
	<rect x="29.1" y="5.5" transform="matrix(0.7071 -0.7071 0.7071 0.7071 2.1453 24.3529)" class="st0" width="2.7" height="8.2"/>
	<path class="st1" d="M32.4,14.1l-6.5-6.5L28.5,5l6.5,6.5L32.4,14.1z M27.3,7.7l5.1,5.1l1.2-1.2l-5.1-5.1L27.3,7.7z"/>
</g>
</svg>
