<?xml version="1.0" encoding="utf-8"?>
<!-- Generator: Adobe Illustrator 21.0.0, SVG Export Plug-In . SVG Version: 6.00 Build 0)  -->
<svg version="1.1" id="Layer_1" xmlns="http://www.w3.org/2000/svg" xmlns:xlink="http://www.w3.org/1999/xlink" x="0px" y="0px"
	 viewBox="0 0 20 20" style="enable-background:new 0 0 20 20;" xml:space="preserve">
<style type="text/css">
	.st0{fill:#3D3D3D;}
</style>
<title>Icons_Logos_UXElements</title>
<g>
	<path class="st0" d="M17.9,16.7H2.1c-0.8,0-1.5-0.7-1.5-1.5V5.5C0.6,4.7,1.3,4,2.1,4h15.8c0.8,0,1.5,0.7,1.5,1.5v9.7
		C19.4,16,18.7,16.7,17.9,16.7z M2.1,5C1.8,5,1.6,5.3,1.6,5.5v9.7c0,0.3,0.2,0.5,0.5,0.5h15.8c0.3,0,0.5-0.2,0.5-0.5V5.5
		c0-0.3-0.2-0.5-0.5-0.5H2.1z"/>
</g>
<g>
	<path class="st0" d="M10,13.6c-0.4,0-0.8-0.2-1.1-0.5L1.1,5.3l0.7-0.7l7.8,7.8c0.1,0.1,0.2,0.2,0.4,0.2c0,0,0,0,0,0
		c0.1,0,0.3-0.1,0.4-0.2l7.8-7.8l0.7,0.7l-7.8,7.8C10.8,13.4,10.4,13.6,10,13.6C10,13.6,10,13.6,10,13.6z"/>
</g>
</svg>
