<svg id="Layer_1" data-name="Layer 1" xmlns="http://www.w3.org/2000/svg" viewBox="0 0 40 40"><defs><style>.cls-1{fill:#3d3d3d;}</style></defs><title>Icons_Logos_UXElements</title><path class="cls-1" d="M26.52,7.17q-6.5-.14-13,0c-3.75.08-5.83,2.16-5.91,5.89q-.14,6.54,0,13.08c.08,3.62,2.22,5.71,5.83,5.83,2.19.07,4.38,0,6.58,0h0c2.24,0,4.49.06,6.73,0a5.5,5.5,0,0,0,4.61-2.31,6,6,0,0,0,1-3.46c0-4.36.08-8.72,0-13.08C32.33,9.37,30.24,7.26,26.52,7.17ZM20,27.41a7.85,7.85,0,1,1,7.87-7.77A7.8,7.8,0,0,1,20,27.41Zm8.17-14.16a1.89,1.89,0,0,1-1.84-1.87,1.84,1.84,0,0,1,1.88-1.8A1.77,1.77,0,0,1,30,11.42,1.84,1.84,0,0,1,28.14,13.25Z"/><path class="cls-1" d="M20.07,14.49a5.07,5.07,0,1,0,5,5.08A5,5,0,0,0,20.07,14.49Z"/><path class="cls-1" d="M39.14,6A5,5,0,0,0,33.88.85H6.13A5.06,5.06,0,0,0,.85,6.17q0,13.8,0,27.6a5.11,5.11,0,0,0,5.33,5.36H13v0H33.88v0h0a5.06,5.06,0,0,0,5.24-5.21Q39.16,20,39.14,6Zm-4,20.65a8,8,0,0,1-8,8q-7.11.18-14.22,0a8,8,0,0,1-8-8c-.13-4.79-.12-9.58,0-14.37a8,8,0,0,1,6.6-7.75c.79-.16,1.6-.24,2.41-.35H26.13c.32,0,.65.12,1,.14a8.16,8.16,0,0,1,8,8Q35.31,19.56,35.13,26.67Z"/></svg>