<svg id="Layer_1" data-name="Layer 1" xmlns="http://www.w3.org/2000/svg" viewBox="0 0 40 40"><defs><style>.cls-1{fill:#3d3d3d;}</style></defs><title>Icons_Logos_UXElements</title><path class="cls-1" d="M39.14,6A5,5,0,0,0,33.88.85H6.13A5.06,5.06,0,0,0,.85,6.17q0,13.8,0,27.6a5.11,5.11,0,0,0,5.33,5.36H18.89c.26,0,.53,0,.78,0V25.53H16.53c-.86,0-1.17-.32-1.18-1.19,0-1.28,0-2.56,0-3.84,0-.9.32-1.21,1.23-1.22h3.12c0-.35,0-.62,0-.89,0-1.65,0-3.32.17-5a6.34,6.34,0,0,1,5.69-5.89A35.65,35.65,0,0,1,31,7.39c.6,0,.84.47.84,1,0,1.1,0,2.21,0,3.31,0,.81-.34,1.13-1.15,1.15s-1.66,0-2.48,0a2.07,2.07,0,0,0-2.27,2.24c0,1.18,0,2.36,0,3.53,0,.46.19.6.64.6,1.43,0,2.86,0,4.29,0,.89,0,1.24.4,1.15,1.27-.14,1.32-.3,2.64-.46,4a1.06,1.06,0,0,1-1.22,1c-1.23,0-2.46,0-3.68,0-.53,0-.69.18-.69.69,0,1.93,0,3.85,0,5.78h0v5.88c0,.18,0,.35,0,.53h0v.75h8a5.06,5.06,0,0,0,5.24-5.21Q39.16,20,39.14,6Z"/></svg>