<svg id="Layer_1" data-name="Layer 1" xmlns="http://www.w3.org/2000/svg" viewBox="0 0 40 40"><defs><style>.cls-1{fill:#3d3d3d;}</style></defs><title>Icons_Logos_UXElements</title><path class="cls-1" d="M39.3,6A5,5,0,0,0,34,.85H6.29A5.06,5.06,0,0,0,1,6.17Q1,20,1,33.77a5.11,5.11,0,0,0,5.33,5.36h6.78v0H34v0h0a5.06,5.06,0,0,0,5.24-5.21Q39.32,20,39.3,6Zm-4.43,6c-.34.31-.69.6-1.06.88a.56.56,0,0,0-.24.52,18.74,18.74,0,0,1-.72,5.85,20.71,20.71,0,0,1-2,4.67,20,20,0,0,1-3.31,4.34,18.39,18.39,0,0,1-6.11,4,19.76,19.76,0,0,1-6.78,1.41,19.94,19.94,0,0,1-4.89-.39A18.44,18.44,0,0,1,5.14,31.7l-1.82-1,0-.07a13.81,13.81,0,0,0,10-2.86,7.22,7.22,0,0,1-3.93-1.42A6.87,6.87,0,0,1,7,23c.51,0,1,0,1.5,0a10,10,0,0,0,1.45-.2,7.13,7.13,0,0,1-4.54-3.46A6.37,6.37,0,0,1,4.6,16c.48.18,1,.4,1.45.53a10.73,10.73,0,0,0,1.53.26c-3-2.57-3.71-5.62-2.05-9.28a19.88,19.88,0,0,0,14.32,7.28c0-.44-.1-.84-.12-1.24a6.67,6.67,0,0,1,2.21-5.44A6.74,6.74,0,0,1,28,6.41a6.42,6.42,0,0,1,3.44,1.85.44.44,0,0,0,.47.14A13.75,13.75,0,0,0,35.65,7l.42-.21a7.18,7.18,0,0,1-2.86,3.74,12.43,12.43,0,0,0,3.78-1A13.21,13.21,0,0,1,34.87,12Z"/></svg>