<?xml version="1.0" encoding="utf-8"?>
<!-- Generator: Adobe Illustrator 21.0.0, SVG Export Plug-In . SVG Version: 6.00 Build 0)  -->
<svg version="1.1" id="Layer_1" xmlns="http://www.w3.org/2000/svg" xmlns:xlink="http://www.w3.org/1999/xlink" x="0px" y="0px"
	 viewBox="0 0 40 40" style="enable-background:new 0 0 40 40;" xml:space="preserve">
<style type="text/css">
	.st0{fill:#FFFFFF;}
</style>
<title>Icons_Logos_UXElements</title>
<g>
	<path class="st0" d="M13,33.2c-0.1,0-0.3,0-0.4-0.1l-5.8-5.8c-0.1-0.1-0.1-0.2-0.1-0.4s0.1-0.3,0.1-0.4L27.1,6.3
		c0.2-0.2,0.5-0.2,0.7,0l5.8,5.8c0.2,0.2,0.2,0.5,0,0.7L13.3,33C13.2,33.1,13.1,33.2,13,33.2z M7.9,26.9l5.1,5.1l19.5-19.5l-5.1-5.1
		L7.9,26.9z"/>
</g>
<g>
	<path class="st0" d="M35.4,10.3l-5.8-5.8l0,0l1.2-1.2c1-1,2.6-1,3.6,0l2.1,2.1c1,1,1,2.7,0,3.7l0,0L35.4,10.3L35.4,10.3L35.4,10.3z
		"/>
	<path class="st0" d="M35.4,11L35,10.6l0.3-0.4L35,10.6l-6.1-6.1l1.6-1.6c1.2-1.2,3.2-1.2,4.4,0l2.1,2.1c1.2,1.2,1.2,3.2,0,4.4
		L35.4,11z M30.3,4.5l5.1,5.1l0.8-0.8c0.8-0.8,0.8-2.1,0-3l-2.1-2.1c-0.8-0.8-2.1-0.8-2.9,0L30.3,4.5z"/>
</g>
<g>
	<path class="st0" d="M2.4,38c-0.1,0-0.3-0.1-0.4-0.1c-0.1-0.1-0.2-0.4-0.1-0.6l4.8-10.6c0.1-0.1,0.2-0.3,0.4-0.3
		c0.2,0,0.3,0,0.4,0.1l5.8,5.8c0.1,0.1,0.2,0.3,0.1,0.4c0,0.2-0.1,0.3-0.3,0.4L2.6,37.9C2.6,37.9,2.5,38,2.4,38z M7.4,27.7l-4,8.7
		l8.7-4L7.4,27.7z"/>
</g>
<g>
	<polygon class="st0" points="2.8,37.1 6.3,35.6 4.3,33.5 	"/>
</g>
<g>
	<polygon class="st0" points="30.9,10.1 10.4,30.6 13,32.7 33.2,12.4 	"/>
</g>
</svg>
