<svg id="Layer_1" data-name="Layer 1" xmlns="http://www.w3.org/2000/svg" viewBox="0 0 40 40"><defs><style>.cls-1{fill:#3d3d3d;}</style></defs><title>Icons_Logos_UXElements</title><path class="cls-1" d="M25.89,39.15V38.4h0c0-.18,0-.35,0-.53V32h0c0-1.93,0-3.85,0-5.78,0-.51.16-.7.69-.69,1.23,0,2.46,0,3.68,0a1.06,1.06,0,0,0,1.22-1c.16-1.32.33-2.63.46-4,.09-.87-.27-1.26-1.15-1.27-1.43,0-2.86,0-4.29,0-.45,0-.64-.14-.64-.6,0-1.18,0-2.36,0-3.53a2.07,2.07,0,0,1,2.27-2.24c.83,0,1.65,0,2.48,0s1.14-.33,1.15-1.15c0-1.1,0-2.21,0-3.31,0-.57-.23-1-.84-1a35.65,35.65,0,0,0-5.4.15,6.34,6.34,0,0,0-5.69,5.89c-.21,1.63-.12,3.3-.17,5,0,.27,0,.54,0,.89H16.57c-.91,0-1.23.32-1.23,1.22,0,1.28,0,2.56,0,3.84,0,.87.32,1.18,1.18,1.19h3.14V39.09Z"/></svg>