<?xml version="1.0" encoding="utf-8"?>
<!-- Generator: Adobe Illustrator 21.0.0, SVG Export Plug-In . SVG Version: 6.00 Build 0)  -->
<svg version="1.1" id="Layer_1" xmlns="http://www.w3.org/2000/svg" xmlns:xlink="http://www.w3.org/1999/xlink" x="0px" y="0px"
	 viewBox="0 0 20 20" style="enable-background:new 0 0 20 20;" xml:space="preserve">
<style type="text/css">
	.st0{fill:#3D3D3D;}
</style>
<title>Icons_Logos_UXElements</title>
<g>
	<path class="st0" d="M10,16.5c-0.4,0-0.8-0.1-1.1-0.4c0,0,0,0,0,0L1.1,8.2C0.9,8,0.9,7.7,1.1,7.5c0.2-0.2,0.5-0.2,0.7,0l7.8,7.8
		c0,0,0,0,0,0c0.2,0.2,0.6,0.2,0.8,0l7.8-7.8c0.2-0.2,0.5-0.2,0.7,0s0.2,0.5,0,0.7L11.1,16C10.8,16.3,10.4,16.5,10,16.5z"/>
</g>
</svg>
