<?xml version="1.0" encoding="utf-8"?>
<!-- Generator: Adobe Illustrator 21.0.0, SVG Export Plug-In . SVG Version: 6.00 Build 0)  -->
<svg version="1.1" id="Layer_1" xmlns="http://www.w3.org/2000/svg" xmlns:xlink="http://www.w3.org/1999/xlink" x="0px" y="0px"
	 viewBox="0 0 20 20" style="enable-background:new 0 0 20 20;" xml:space="preserve">
<style type="text/css">
	.st0{fill:#3D3D3D;}
</style>
<title>Icons_Logos_UXElements</title>
<g>
	<path class="st0" d="M13.1,19.1c-0.1,0-0.3,0-0.4-0.1l-7.8-7.8c-0.3-0.3-0.5-0.7-0.5-1.1s0.2-0.8,0.5-1.1l7.8-7.8
		c0.2-0.2,0.5-0.2,0.7,0s0.2,0.5,0,0.7L5.6,9.6C5.5,9.7,5.4,9.9,5.4,10s0.1,0.3,0.2,0.4l7.8,7.8c0.2,0.2,0.2,0.5,0,0.7
		C13.3,19,13.2,19.1,13.1,19.1z"/>
</g>
</svg>
