<?xml version="1.0" encoding="utf-8"?>
<!-- Generator: Adobe Illustrator 21.0.0, SVG Export Plug-In . SVG Version: 6.00 Build 0)  -->
<svg version="1.1" id="Layer_1" xmlns="http://www.w3.org/2000/svg" xmlns:xlink="http://www.w3.org/1999/xlink" x="0px" y="0px"
	 viewBox="0 0 40 40" style="enable-background:new 0 0 40 40;" xml:space="preserve">
<style type="text/css">
	.st0{fill:#3D3D3D;}
</style>
<title>Icons_Logos_UXElements</title>
<g>
	<path class="st0" d="M13,33.4c-0.1,0-0.3-0.1-0.4-0.1l-5.8-5.8c-0.2-0.2-0.2-0.5,0-0.7L27.1,6.6c0.2-0.2,0.5-0.2,0.7,0l5.8,5.8
		c0.1,0.1,0.1,0.2,0.1,0.4s-0.1,0.3-0.1,0.4L13.3,33.3C13.3,33.4,13.1,33.4,13,33.4z M7.9,27.2l5.1,5.1l19.5-19.5l-5.1-5.1L7.9,27.2
		z"/>
</g>
<g>
	<path class="st0" d="M35.4,10.6l-5.8-5.8l0,0l1.2-1.2c1-1,2.7-1,3.7,0l0,0l2.1,2.1c1,1,1,2.7,0,3.7l0,0L35.4,10.6L35.4,10.6z"/>
	<path class="st0" d="M35.4,11.3L35,10.9l-6.1-6.1l1.6-1.6c1.2-1.2,3.2-1.2,4.4,0l2.1,2.1c1.2,1.2,1.2,3.2,0,4.4L35.4,11.3z
		 M30.3,4.8l5.1,5.1L36.2,9c0.4-0.4,0.6-0.9,0.6-1.5S36.6,6.4,36.2,6l-2.1-2.1c-0.8-0.8-2.2-0.8-3,0L30.3,4.8z"/>
</g>
<g>
	<path class="st0" d="M2.4,38.2c-0.1,0-0.3-0.1-0.4-0.1c-0.1-0.1-0.2-0.4-0.1-0.6L6.8,27c0.1-0.1,0.2-0.3,0.4-0.3
		c0.2,0,0.3,0,0.4,0.1l5.8,5.8c0.1,0.1,0.2,0.3,0.1,0.4c0,0.2-0.1,0.3-0.3,0.4L2.6,38.2C2.6,38.2,2.5,38.2,2.4,38.2z M7.4,28l-4,8.7
		l8.7-4L7.4,28z"/>
</g>
<g>
	<polygon class="st0" points="2.8,37.4 6.3,35.9 4.3,33.8 	"/>
</g>
<g>
	<polygon class="st0" points="30.9,10.4 10.4,30.9 13,32.9 33.2,12.7 	"/>
</g>
</svg>
