<svg id="Layer_1" data-name="Layer 1" xmlns="http://www.w3.org/2000/svg" viewBox="0 0 40 40"><defs><style>.cls-1{fill:#3d3d3d;}.cls-2{fill:#fff;}</style></defs><title>Icons_Logos_UXElements</title><path class="cls-1" d="M24.16,24.38a2.7,2.7,0,0,0-1.38.69l-.29.23V21.41c-.57,0-1.11,0-1.65,0-.24,0-.32.05-.31.31q0,5.69,0,11.39v.29h2v-.77c.31.22.59.45.89.64a1.51,1.51,0,0,0,2.42-1.13c0-.12,0-.23,0-.34q0-2.69,0-5.38c0-.25,0-.5,0-.74A1.38,1.38,0,0,0,24.16,24.38Zm-.28,7c0,.61-.35.81-.93.57s-.46-.21-.46-.68q0-1.2,0-2.4c0-.83,0-1.65,0-2.48,0-.2,0-.34.24-.41a3.25,3.25,0,0,1,.64-.21c.28,0,.44.13.49.41a2.55,2.55,0,0,1,0,.4q0,2.32,0,4.63C23.88,31.31,23.88,31.37,23.88,31.42Z"/><path class="cls-1" d="M18.94,15.31a.77.77,0,0,0,1.52-.09c0-.14,0-.28,0-.42q0-1.16,0-2.31c0-.05,0-.11,0-.16,0-.89,0-1.77,0-2.66,0-.42-.32-.66-.78-.66a.7.7,0,0,0-.74.62,3.08,3.08,0,0,0,0,.48q0,2.37,0,4.73A2.55,2.55,0,0,0,18.94,15.31Z"/><path class="cls-1" d="M18.2,24.46H16.84c-.39,0-.39,0-.39.38q0,3.31,0,6.63a.43.43,0,0,1-.09.3,1.78,1.78,0,0,1-.54.27c-.46.13-.7-.05-.73-.53,0-.11,0-.23,0-.35q0-3.18,0-6.36c0-.35,0-.35-.34-.35s-.87,0-1.3,0c-.25,0-.33.06-.33.32,0,1.89,0,3.78,0,5.67,0,.51,0,1,0,1.52a1.38,1.38,0,0,0,.66,1.35,1.75,1.75,0,0,0,1.75,0c.31-.18.6-.39.92-.6,0,.21.08.4.13.59s.09.14.14.14H18.4a1,1,0,0,0,0-.13q0-4.31,0-8.63C18.43,24.48,18.35,24.46,18.2,24.46Z"/><path class="cls-1" d="M12.44,21.41H6.64c0,.42,0,.81,0,1.2s0,.36.36.36H8.59V33.4h2.12v-.33q0-4.9,0-9.8c0-.25.07-.32.31-.31.5,0,1,0,1.49,0,.18,0,.25-.06.24-.25a10.07,10.07,0,0,1,0-1C12.77,21.46,12.68,21.41,12.44,21.41Z"/><path class="cls-1" d="M39.33,6A5,5,0,0,0,34.08.85H6.32A5.06,5.06,0,0,0,1,6.17Q1,20,1,33.77a5.11,5.11,0,0,0,5.33,5.36h6.78v0H34.07v0h0a5.06,5.06,0,0,0,5.24-5.21Q39.35,20,39.33,6ZM25.23,7.54c.51,0,1,0,1.54,0,.22,0,.28.07.28.29q0,3.55,0,7.11c0,.14,0,.28,0,.43,0,.42.26.63.67.55a2.88,2.88,0,0,0,.79-.34c.06,0,.07-.19.07-.29q0-3.69,0-7.37V7.57h2.12v9.82c-.62,0-1.2,0-1.79,0a.29.29,0,0,1-.2-.18,6.28,6.28,0,0,1-.14-.64c-.37.24-.7.48-1.06.69a1.86,1.86,0,0,1-2.18-.2,1.6,1.6,0,0,1-.38-.76,6,6,0,0,1-.09-1.19c0-2.4,0-4.81,0-7.21C24.9,7.62,25,7.53,25.23,7.54Zm-8.48,2.79A5,5,0,0,1,17,8.92a2,2,0,0,1,1.43-1.31,4.13,4.13,0,0,1,2.91.14,2.09,2.09,0,0,1,1.26,1.92c0,.93,0,1.86,0,2.79h0c0,.86,0,1.72,0,2.58a2.3,2.3,0,0,1-2.15,2.4,4.31,4.31,0,0,1-2.32-.22,2.23,2.23,0,0,1-1.34-2,7.43,7.43,0,0,1,0-.88C16.75,13,16.73,11.68,16.76,10.32ZM11.51,4.19c.06,0,.16.1.17.17.36,1.41.7,2.82,1.05,4.23l.13.53H13c.07-.29.13-.59.2-.88.32-1.3.64-2.6,1-3.89a.27.27,0,0,1,.18-.17h2.27c-.09.29-.17.56-.26.83-.66,2-1.3,4-2,5.95A6,6,0,0,0,14,13.06c0,1.32,0,2.64,0,4v.34h-2.3v-.31c0-1.3,0-2.59,0-3.88a7.09,7.09,0,0,0-.45-2.62c-.71-2-1.38-4.1-2.06-6.15,0-.06,0-.12-.06-.22ZM36.86,30.65c0,.14-.07.27-.1.41a5.35,5.35,0,0,1-.62,1.75,5.65,5.65,0,0,1-5.13,3c-7.21,0-14.43,0-21.64,0a5.8,5.8,0,0,1-5.68-4.48l-.16-.69V24.37c.06-.27.12-.55.19-.82a5.63,5.63,0,0,1,3.86-4.08,6.11,6.11,0,0,1,1.88-.28q10.73,0,21.46,0a5.75,5.75,0,0,1,4.65,2.17A5.6,5.6,0,0,1,36.77,24c0,.13.06.25.09.38Z"/><path class="cls-1" d="M31.29,30.29c0,.11,0,.2,0,.3,0,.31,0,.62,0,.93a.62.62,0,0,1-.68.57c-.43,0-.67-.18-.68-.58,0-.74,0-1.49,0-2.28H33c.14,0,.26,0,.26-.2,0-.86,0-1.72,0-2.58a2,2,0,0,0-1.3-1.84,3.86,3.86,0,0,0-2.17-.16,2,2,0,0,0-1.84,2.07c0,1,0,2.08,0,3.11,0,.6,0,1.21,0,1.81a2.08,2.08,0,0,0,1.27,1.85,3.54,3.54,0,0,0,1.61.24A2.9,2.9,0,0,0,32.38,33a2.67,2.67,0,0,0,.82-2.75Zm-1.42-3.91c0-.39.31-.58.73-.57s.67.21.68.62,0,1,0,1.5H29.86C29.86,27.4,29.83,26.89,29.86,26.38Z"/><path class="cls-2" d="M23.85,26.23c0-.29-.21-.45-.49-.41a3.25,3.25,0,0,0-.64.21c-.2.07-.24.21-.24.41,0,.83,0,1.65,0,2.48s0,1.6,0,2.4c0,.47,0,.49.46.68s.9,0,.93-.57c0-.05,0-.11,0-.16q0-2.32,0-4.63A2.55,2.55,0,0,0,23.85,26.23Z"/><path class="cls-2" d="M31.27,26.43c0-.41-.26-.61-.68-.62s-.7.18-.73.57,0,1,0,1.55h1.42C31.28,27.41,31.29,26.92,31.27,26.43Z"/></svg>