<?xml version="1.0" standalone="no"?>
<!DOCTYPE svg PUBLIC "-//W3C//DTD SVG 1.1//EN" "http://www.w3.org/Graphics/SVG/1.1/DTD/svg11.dtd" >
<svg xmlns="http://www.w3.org/2000/svg">
<metadata>Generated by IcoMoon</metadata>
<defs>
<font id="McW-icon-font" horiz-adv-x="1024">
<font-face units-per-em="1024" ascent="960" descent="-64" />
<missing-glyph horiz-adv-x="1024" />
<glyph unicode="&#x20;" horiz-adv-x="512" d="" />
<glyph unicode="&#xe900;" d="M102.4 727.040h826.88c15.36 0 25.6-10.24 25.6-25.6v-663.040c0-15.36-10.24-25.6-25.6-25.6h-826.88c-15.36 0-25.6 10.24-25.6 25.6v663.040c0 12.8 12.8 25.6 25.6 25.6z" />
<glyph unicode="&#xe901;" d="M929.28 0h-826.88c-23.040 0-38.4 15.36-38.4 38.4v663.040c0 20.48 17.92 38.4 38.4 38.4h826.88c23.040 0 38.4-15.36 38.4-38.4v-663.040c0-23.040-15.36-38.4-38.4-38.4zM102.4 714.24c-5.12 0-12.8-7.68-12.8-12.8v-663.040c0-7.68 5.12-12.8 12.8-12.8h826.88c7.68 0 12.8 5.12 12.8 12.8v663.040c0 7.68-5.12 12.8-12.8 12.8h-826.88z" />
<glyph unicode="&#xe902;" d="M102.4 755.2h826.88c15.36 0 25.6-10.24 25.6-25.6v-135.68c0-15.36-10.24-25.6-25.6-25.6h-826.88c-15.36 0-25.6 10.24-25.6 25.6v135.68c0 12.8 12.8 25.6 25.6 25.6z" />
<glyph unicode="&#xe903;" d="M929.28 555.52h-826.88c-23.040 0-38.4 15.36-38.4 38.4v135.68c0 20.48 17.92 38.4 38.4 38.4h826.88c23.040 0 38.4-15.36 38.4-38.4v-135.68c0-23.040-15.36-38.4-38.4-38.4zM102.4 742.4c-5.12 0-12.8-7.68-12.8-12.8v-135.68c0-7.68 5.12-12.8 12.8-12.8h826.88c7.68 0 12.8 5.12 12.8 12.8v135.68c0 7.68-5.12 12.8-12.8 12.8h-826.88z" />
<glyph unicode="&#xe904;" d="M102.4 755.2h826.88c15.36 0 25.6-10.24 25.6-25.6v-135.68c0-15.36-10.24-25.6-25.6-25.6h-826.88c-15.36 0-25.6 10.24-25.6 25.6v135.68c0 12.8 12.8 25.6 25.6 25.6z" />
<glyph unicode="&#xe905;" d="M256 880.64v0c23.040 0 43.52-17.92 43.52-40.96v-168.96c0-23.040-17.92-40.96-40.96-40.96v0c-23.040 0-40.96 17.92-40.96 40.96v168.96c-5.12 23.040 15.36 40.96 38.4 40.96z" />
<glyph unicode="&#xe906;" d="M258.56 616.96c-30.72 0-53.76 23.040-53.76 53.76v166.4c-2.56 12.8 0 25.6 7.68 35.84 10.24 12.8 25.6 20.48 43.52 20.48 30.72 0 56.32-23.040 56.32-53.76v-168.96c0-30.72-23.040-53.76-53.76-53.76zM256 867.84c-7.68 0-17.92-2.56-23.040-10.24-2.56-5.12-5.12-10.24-2.56-15.36v-171.52c0-15.36 12.8-28.16 28.16-28.16s28.16 12.8 28.16 28.16v168.96c0 15.36-12.8 28.16-30.72 28.16z" />
<glyph unicode="&#xe907;" d="M765.44 880.64v0c23.040 0 40.96-17.92 40.96-40.96v-168.96c0-23.040-17.92-40.96-40.96-40.96v0c-23.040 0-40.96 17.92-40.96 40.96v168.96c0 23.040 17.92 40.96 40.96 40.96z" />
<glyph unicode="&#xe908;" d="M765.44 616.96c-30.72 0-53.76 23.040-53.76 53.76v168.96c0 30.72 23.040 53.76 53.76 53.76s53.76-23.040 53.76-53.76v-168.96c0-30.72-23.040-53.76-53.76-53.76zM765.44 867.84c-15.36 0-28.16-12.8-28.16-28.16v-168.96c0-15.36 12.8-28.16 28.16-28.16s28.16 12.8 28.16 28.16v168.96c0 15.36-12.8 28.16-28.16 28.16z" />
<glyph unicode="&#xe909;" glyph-name="icon-all-dark" d="M435.2 817.408h162.048c28.277 0 51.2-22.923 51.2-51.2v-102.912c0-28.277-22.923-51.2-51.2-51.2h-162.048c-28.277 0-51.2 22.923-51.2 51.2v102.912c0 28.277 22.923 51.2 51.2 51.2zM762.112 817.408h162.048c28.277 0 51.2-22.923 51.2-51.2v-102.912c0-28.277-22.923-51.2-51.2-51.2h-162.048c-28.277 0-51.2 22.923-51.2 51.2v102.912c0 28.277 22.923 51.2 51.2 51.2zM108.288 817.408h162.048c28.277 0 51.2-22.923 51.2-51.2v-102.912c0-28.277-22.923-51.2-51.2-51.2h-162.048c-28.277 0-51.2 22.923-51.2 51.2v102.912c0 28.277 22.923 51.2 51.2 51.2zM435.2 550.656h162.048c28.277 0 51.2-22.923 51.2-51.2v-102.912c0-28.277-22.923-51.2-51.2-51.2h-162.048c-28.277 0-51.2 22.923-51.2 51.2v102.912c0 28.277 22.923 51.2 51.2 51.2zM762.112 550.656h162.048c28.277 0 51.2-22.923 51.2-51.2v-102.912c0-28.277-22.923-51.2-51.2-51.2h-162.048c-28.277 0-51.2 22.923-51.2 51.2v102.912c0 28.277 22.923 51.2 51.2 51.2zM108.288 550.656h162.048c28.277 0 51.2-22.923 51.2-51.2v-102.912c0-28.277-22.923-51.2-51.2-51.2h-162.048c-28.277 0-51.2 22.923-51.2 51.2v102.912c0 28.277 22.923 51.2 51.2 51.2zM435.2 284.16h162.048c28.277 0 51.2-22.923 51.2-51.2v-102.912c0-28.277-22.923-51.2-51.2-51.2h-162.048c-28.277 0-51.2 22.923-51.2 51.2v102.912c0 28.277 22.923 51.2 51.2 51.2zM762.112 284.16h162.048c28.277 0 51.2-22.923 51.2-51.2v-102.912c0-28.277-22.923-51.2-51.2-51.2h-162.048c-28.277 0-51.2 22.923-51.2 51.2v102.912c0 28.277 22.923 51.2 51.2 51.2zM108.288 284.16h162.048c28.277 0 51.2-22.923 51.2-51.2v-102.912c0-28.277-22.923-51.2-51.2-51.2h-162.048c-28.277 0-51.2 22.923-51.2 51.2v102.912c0 28.277 22.923 51.2 51.2 51.2z" />
<glyph unicode="&#xe90a;" glyph-name="icon-all" d="M435.2 810.24h162.048c28.277 0 51.2-22.923 51.2-51.2v-102.912c0-28.277-22.923-51.2-51.2-51.2h-162.048c-28.277 0-51.2 22.923-51.2 51.2v102.912c0 28.277 22.923 51.2 51.2 51.2zM762.112 810.24h162.048c28.277 0 51.2-22.923 51.2-51.2v-102.912c0-28.277-22.923-51.2-51.2-51.2h-162.048c-28.277 0-51.2 22.923-51.2 51.2v102.912c0 28.277 22.923 51.2 51.2 51.2zM108.288 810.24h162.048c28.277 0 51.2-22.923 51.2-51.2v-102.912c0-28.277-22.923-51.2-51.2-51.2h-162.048c-28.277 0-51.2 22.923-51.2 51.2v102.912c0 28.277 22.923 51.2 51.2 51.2zM435.2 543.488h162.048c28.277 0 51.2-22.923 51.2-51.2v-102.912c0-28.277-22.923-51.2-51.2-51.2h-162.048c-28.277 0-51.2 22.923-51.2 51.2v102.912c0 28.277 22.923 51.2 51.2 51.2zM762.112 543.488h162.048c28.277 0 51.2-22.923 51.2-51.2v-102.912c0-28.277-22.923-51.2-51.2-51.2h-162.048c-28.277 0-51.2 22.923-51.2 51.2v102.912c0 28.277 22.923 51.2 51.2 51.2zM108.288 543.488h162.048c28.277 0 51.2-22.923 51.2-51.2v-102.912c0-28.277-22.923-51.2-51.2-51.2h-162.048c-28.277 0-51.2 22.923-51.2 51.2v102.912c0 28.277 22.923 51.2 51.2 51.2zM435.2 276.992h162.048c28.277 0 51.2-22.923 51.2-51.2v-102.912c0-28.277-22.923-51.2-51.2-51.2h-162.048c-28.277 0-51.2 22.923-51.2 51.2v102.912c0 28.277 22.923 51.2 51.2 51.2zM762.112 276.992h162.048c28.277 0 51.2-22.923 51.2-51.2v-102.912c0-28.277-22.923-51.2-51.2-51.2h-162.048c-28.277 0-51.2 22.923-51.2 51.2v102.912c0 28.277 22.923 51.2 51.2 51.2zM108.288 276.992h162.048c28.277 0 51.2-22.923 51.2-51.2v-102.912c0-28.277-22.923-51.2-51.2-51.2h-162.048c-28.277 0-51.2 22.923-51.2 51.2v102.912c0 28.277 22.923 51.2 51.2 51.2z" />
<glyph unicode="&#xe90b;" glyph-name="icon-allwhite" d="M435.2 817.408h162.048c28.277 0 51.2-22.923 51.2-51.2v-102.912c0-28.277-22.923-51.2-51.2-51.2h-162.048c-28.277 0-51.2 22.923-51.2 51.2v102.912c0 28.277 22.923 51.2 51.2 51.2zM762.112 817.408h162.048c28.277 0 51.2-22.923 51.2-51.2v-102.912c0-28.277-22.923-51.2-51.2-51.2h-162.048c-28.277 0-51.2 22.923-51.2 51.2v102.912c0 28.277 22.923 51.2 51.2 51.2zM108.288 817.408h162.048c28.277 0 51.2-22.923 51.2-51.2v-102.912c0-28.277-22.923-51.2-51.2-51.2h-162.048c-28.277 0-51.2 22.923-51.2 51.2v102.912c0 28.277 22.923 51.2 51.2 51.2zM435.2 550.656h162.048c28.277 0 51.2-22.923 51.2-51.2v-102.912c0-28.277-22.923-51.2-51.2-51.2h-162.048c-28.277 0-51.2 22.923-51.2 51.2v102.912c0 28.277 22.923 51.2 51.2 51.2zM762.112 550.656h162.048c28.277 0 51.2-22.923 51.2-51.2v-102.912c0-28.277-22.923-51.2-51.2-51.2h-162.048c-28.277 0-51.2 22.923-51.2 51.2v102.912c0 28.277 22.923 51.2 51.2 51.2zM108.288 550.656h162.048c28.277 0 51.2-22.923 51.2-51.2v-102.912c0-28.277-22.923-51.2-51.2-51.2h-162.048c-28.277 0-51.2 22.923-51.2 51.2v102.912c0 28.277 22.923 51.2 51.2 51.2zM435.2 284.16h162.048c28.277 0 51.2-22.923 51.2-51.2v-102.912c0-28.277-22.923-51.2-51.2-51.2h-162.048c-28.277 0-51.2 22.923-51.2 51.2v102.912c0 28.277 22.923 51.2 51.2 51.2zM762.112 284.16h162.048c28.277 0 51.2-22.923 51.2-51.2v-102.912c0-28.277-22.923-51.2-51.2-51.2h-162.048c-28.277 0-51.2 22.923-51.2 51.2v102.912c0 28.277 22.923 51.2 51.2 51.2zM108.288 284.16h162.048c28.277 0 51.2-22.923 51.2-51.2v-102.912c0-28.277-22.923-51.2-51.2-51.2h-162.048c-28.277 0-51.2 22.923-51.2 51.2v102.912c0 28.277 22.923 51.2 51.2 51.2z" />
<glyph unicode="&#xe90c;" glyph-name="icon-arrowdown" d="M512 115.2c-20.48 0-40.96 5.12-56.32 20.48 0 0 0 0 0 0l-399.36 404.48c-10.24 10.24-10.24 25.6 0 35.84s25.6 10.24 35.84 0l399.36-399.36c0 0 0 0 0 0 10.24-10.24 30.72-10.24 40.96 0l399.36 399.36c10.24 10.24 25.6 10.24 35.84 0s10.24-25.6 0-35.84l-399.36-399.36c-15.36-15.36-35.84-25.6-56.32-25.6z" />
<glyph unicode="&#xe90d;" glyph-name="icon-arrowleft" d="M670.72-17.92c-5.12 0-15.36 0-20.48 5.12l-399.36 399.36c-15.36 15.36-25.6 35.84-25.6 56.32s10.24 40.96 25.6 56.32l399.36 399.36c10.24 10.24 25.6 10.24 35.84 0s10.24-25.6 0-35.84l-399.36-394.24c-5.12-5.12-10.24-15.36-10.24-20.48s5.12-15.36 10.24-20.48l399.36-399.36c10.24-10.24 10.24-25.6 0-35.84-5.12-5.12-10.24-10.24-15.36-10.24z" />
<glyph unicode="&#xe90e;" glyph-name="icon-arrowright" d="M337.92-17.92c-5.12 0-15.36 0-20.48 5.12-10.24 10.24-10.24 25.6 0 35.84l399.36 399.36c0 0 0 0 0 0 5.12 5.12 10.24 10.24 10.24 20.48 0 5.12-5.12 15.36-10.24 20.48l-394.24 404.48c-10.24 10.24-10.24 25.6 0 35.84s25.6 10.24 35.84 0l399.36-399.36c15.36-15.36 25.6-35.84 25.6-56.32s-10.24-40.96-20.48-56.32c0 0 0 0 0 0l-404.48-399.36c-5.12-5.12-10.24-10.24-20.48-10.24zM742.4 412.16v0 0z" />
<glyph unicode="&#xe90f;" glyph-name="icon-arrowup" d="M71.68 325.12c-5.12 0-15.36 0-20.48 5.12-10.24 10.24-10.24 25.6 0 35.84l399.36 399.36c30.72 30.72 81.92 30.72 112.64 0l399.36-399.36c10.24-10.24 10.24-25.6 0-35.84s-25.6-10.24-35.84 0l-399.36 399.36c-10.24 10.24-30.72 10.24-40.96 0l-399.36-399.36c0-5.12-10.24-5.12-15.36-5.12z" />
<glyph unicode="&#xe910;" horiz-adv-x="1018" d="M976.446 452.755c0-266.136-215.746-481.882-481.882-481.882s-481.882 215.746-481.882 481.882c0 266.136 215.746 481.882 481.882 481.882s481.882-215.746 481.882-481.882z" />
<glyph unicode="&#xe911;" horiz-adv-x="1018" d="M393.115 148.409c-9.511 0-15.851 3.17-22.192 9.511-12.681 12.681-12.681 31.703 0 44.384l250.452 250.452-250.452 250.452c-12.681 12.681-12.681 31.703 0 44.384s31.703 12.681 44.384 0l272.644-272.644c12.681-12.681 12.681-31.703 0-44.384l-272.644-272.644c-3.17-6.341-12.681-9.511-22.192-9.511z" />
<glyph unicode="&#xe912;" horiz-adv-x="1018" d="M976.446 452.755c0-266.136-215.746-481.882-481.882-481.882s-481.882 215.746-481.882 481.882c0 266.136 215.746 481.882 481.882 481.882s481.882-215.746 481.882-481.882z" />
<glyph unicode="&#xe913;" horiz-adv-x="1018" d="M393.115 148.409c-9.511 0-15.851 3.17-22.192 9.511-12.681 12.681-12.681 31.703 0 44.384l250.452 250.452-250.452 250.452c-12.681 12.681-12.681 31.703 0 44.384s31.703 12.681 44.384 0l272.644-272.644c12.681-12.681 12.681-31.703 0-44.384l-272.644-272.644c-3.17-6.341-12.681-9.511-22.192-9.511z" />
<glyph unicode="&#xe914;" glyph-name="icon-calendar" d="M928.768 765.44h-107.008v71.68c0 30.398-24.642 55.040-55.040 55.040s-55.040-24.642-55.040-55.040v-71.68h-400.896v71.68c0 30.398-24.642 55.040-55.040 55.040s-55.040-24.642-55.040-55.040v-71.68h-98.304c-21.208 0-38.4-17.192-38.4-38.4v-691.2c0.289-20.986 17.369-37.888 38.397-37.888 0.001 0 0.002 0 0.004 0h826.368c21.208 0 38.4 17.192 38.4 38.4v690.688c0 21.208-17.192 38.4-38.4 38.4zM737.28 711.68v125.44c0 16.259 13.181 29.44 29.44 29.44s29.44-13.181 29.44-29.44v-168.96c0-16.259-13.181-29.44-29.44-29.44s-29.44 13.181-29.44 29.44zM225.28 711.68v125.44c0 16.259 13.181 29.44 29.44 29.44s29.44-13.181 29.44-29.44v-168.96c0-16.259-13.181-29.44-29.44-29.44s-29.44 13.181-29.44 29.44zM941.568 36.352c0-7.069-5.731-12.8-12.8-12.8h-826.368c-7.069 0-12.8 5.731-12.8 12.8v519.424c3.803-1.435 8.199-2.277 12.788-2.304h826.38c4.601 0.027 8.997 0.869 13.062 2.39z" />
<glyph unicode="&#xe915;" glyph-name="icon-calendarwhite" d="M928.768 772.608h-107.008v71.68c0 30.398-24.642 55.040-55.040 55.040s-55.040-24.642-55.040-55.040v-71.68h-400.896v71.68c0 30.398-24.642 55.040-55.040 55.040s-55.040-24.642-55.040-55.040v-71.68h-98.304c-21.208 0-38.4-17.192-38.4-38.4v-691.2c0.289-20.986 17.369-37.888 38.397-37.888 0.001 0 0.002 0 0.004 0h826.368c21.208 0 38.4 17.192 38.4 38.4v691.2c-0.289 20.986-17.369 37.888-38.397 37.888-0.001 0-0.002 0-0.004 0zM737.28 718.848v125.44c0 16.259 13.181 29.44 29.44 29.44s29.44-13.181 29.44-29.44v-168.96c0-16.259-13.181-29.44-29.44-29.44s-29.44 13.181-29.44 29.44zM225.28 718.848v125.44c0 16.259 13.181 29.44 29.44 29.44s29.44-13.181 29.44-29.44v-168.96c0-16.259-13.181-29.44-29.44-29.44s-29.44 13.181-29.44 29.44zM941.568 43.52c0-7.069-5.731-12.8-12.8-12.8h-826.368c-7.069 0-12.8 5.731-12.8 12.8v519.424c3.803-1.435 8.199-2.277 12.788-2.304h826.38c4.601 0.027 8.997 0.869 13.062 2.39z" />
<glyph unicode="&#xe916;" horiz-adv-x="1218" d="M734.395-32.27l-23.076 8.654c-2.885 1.731-5.769 4.038-8.654 6.346s-5.769 4.038-8.654 6.346c-26.537 17.884-53.652 35.768-80.189 53.652-10.961 7.5-22.499 18.461-14.999 37.499 0.577 1.154 0.577 2.885 0 4.038-7.5 8.654-6.923 19.038-6.923 27.691 0 2.308 0 4.615 0 6.923 0 0.577 0 1.154-0.577 1.731-9.807 2.885-20.192 4.615-30.576 5.192-2.885 0-5.769-0.577-9.23-1.154-6.923-1.154-14.423-2.308-23.076 0.577h-1.154c-12.692 4.038-25.384 8.077-38.652 4.038-4.615-1.154-8.654 0.577-12.692 1.731-1.154 0.577-2.308 1.154-3.461 1.154-1.154 0.577-2.885 0.577-4.038 1.154l-1.731 0.577c-5.769 1.731-11.538 3.461-17.307 5.769-11.538 3.461-23.653 7.5-35.191 12.115l-1.154 0.577c-8.654 3.461-16.153 6.923-24.807 5.769v-1.731c0-1.731 0-2.308 0-3.461 0-4.615 0.577-14.999-12.115-16.73-1.731 0-4.038-0.577-5.769-1.154-5.192-1.154-10.961-2.885-15.576 0-13.269 6.923-24.23 19.038-28.845 34.037v0.577c-1.154 6.346-4.038 12.115-8.077 16.153-7.5 5.769-15.576 10.384-23.653 15.576-4.615 2.885-9.807 5.769-14.423 8.654-4.615 3.461-8.654 6.923-12.115 10.961s-6.346 8.654-9.23 13.269c-2.885 4.038-5.192 8.654-6.346 13.269v1.154c-0.577 8.077-0.577 16.153 0.577 24.23 0 1.154 0.577 2.885 0.577 3.461-0.577 0-1.154 0-1.731 0.577-8.077 1.154-15.576 3.461-23.076 6.923l-0.577 0.577c-0.577 0.577-1.154 0-1.731 0 0 0-0.577-0.577-1.154-1.154-1.731-4.038-5.192-6.923-9.23-8.077-7.5-2.885-16.153 1.154-19.038 8.654-3.461 6.346-6.923 12.115-10.384 18.461-2.308 3.461-4.038 6.923-5.192 10.961-2.885 13.846-13.269 24.23-26.537 27.691-0.577 0-1.154 0-1.731-0.577-12.692-7.5-27.691-6.923-39.806 1.154-5.769 2.885-12.115 5.769-18.461 8.077l-1.154 0.577-13.846 14.423v2.308c0.577 8.077 1.154 20.192 1.731 31.73 0.577 12.115 1.154 24.23 1.731 32.306 1.154 14.999 1.731 29.422 2.308 44.421s1.731 29.422 2.885 44.421c0.577 7.5 1.154 14.999 1.731 22.499 0.577 9.23 1.154 17.884 1.731 27.114 1.154 14.999 1.731 29.422 2.308 44.421s1.731 29.422 2.885 44.421c0.577 7.5 1.154 14.999 1.731 22.499 0.577 9.23 1.154 17.884 1.731 27.114 1.731 31.153 3.461 59.421 4.615 88.266 0.577 8.654 1.154 13.269 1.154 18.461 0.577 4.615 0.577 9.23 1.154 17.307l0.577 5.769 33.46-1.731c14.423-1.154 28.268-1.731 42.114-2.885 16.153-1.154 32.306-2.885 47.883-4.038 10.384-1.154 20.768-1.731 31.73-2.885 5.769-0.577 12.115-1.154 17.884-1.154 9.23-0.577 18.461-1.154 27.114-2.308 13.846-1.154 27.691-2.308 41.537-4.038 10.384-1.154 20.768-1.731 31.73-2.885 4.615-0.577 9.23-0.577 13.846-1.154 8.654-0.577 17.884-1.731 26.537-2.308 9.807-1.154 19.615-2.308 29.999-3.461 9.23-1.154 18.461-2.308 27.691-3.461 6.923-0.577 13.846-1.154 20.192-1.731 6.923-0.577 13.846-1.154 20.768-1.731 12.692-1.154 25.384-2.885 38.075-4.038 12.115-1.154 23.653-2.885 35.191-4.038 10.384-1.154 20.192-1.731 30.576-2.885 13.269-1.154 27.114-2.308 40.383-4.038 16.73-1.731 33.46-4.038 49.614-6.346 9.807-1.154 20.192-2.885 29.999-4.038h0.577c5.192-1.154 10.384 0.577 13.269 4.615 2.885 3.461 5.769 6.923 9.23 9.807l1.731 1.154c12.115 9.23 27.691 21.345 47.883 9.807l12.115-0.577c10.384-0.577 20.768-0.577 30.576-1.154 5.192-0.577 11.538-1.154 14.999-5.192 5.192-6.346 11.538-7.5 21.922-8.654h0.577c6.923-1.731 13.846-4.038 20.192-6.923 9.23-3.461 14.423-10.384 19.038-16.153 2.308-2.885 4.615-6.346 6.923-8.654 2.885-2.308 4.038-5.769 5.192-8.654 8.077 9.807 19.038 12.692 27.691 7.5 5.769-3.461 8.654-4.615 9.807-4.615 0.577 1.154 1.154 4.038 1.154 10.961 0 6.346 0.577 17.884 11.538 23.076 12.115 5.769 24.807 10.961 37.499 16.153 4.615 2.308 9.807 2.885 14.423 2.308h0.577c9.23-2.308 17.884-5.192 26.537-8.077l4.038-1.154c9.807-3.461 19.038 1.731 27.114 6.923 4.038 3.461 10.384 3.461 15.576 1.154l11.538-4.038v-4.038c0.577-26.537 0.577-26.537 0-44.998v-12.115c0-6.346-2.308-12.692-5.192-18.461-19.615-30.576-32.883-64.613-46.729-96.919l-2.885-7.5c-1.731-4.615-4.615-9.807-6.923-14.423-5.769-10.384-6.346-21.922-6.346-34.037 0-3.461 0-6.923 0-10.961-0.577-7.5-2.308-14.423-5.192-21.345-10.961-23.653-21.345-44.998-32.883-65.767-3.461-6.346-8.077-10.961-12.692-15.576-2.885-2.885-5.769-6.346-8.077-9.23-3.461-5.192-6.346-10.961-9.23-16.73-2.308-5.769-5.769-11.538-9.807-16.153l-0.577-0.577c-6.346-4.615-13.269-9.23-19.615-13.846-9.23-5.769-18.461-12.115-27.114-19.038-6.923-5.769-12.115-12.692-18.461-19.615-3.461-4.615-7.5-8.654-11.538-13.269-12.115-12.692-19.038-28.268-25.961-44.421l-2.308-4.615c-5.769-12.115-13.269-23.076-21.922-32.306-10.961-12.115-17.884-27.691-19.615-44.421-2.885-23.076-16.73-36.922-29.999-47.306-4.615-4.615-8.077-9.23-11.538-14.423l-0.577-0.577c-17.884-20.192-27.114-44.998-35.191-68.651-4.038-11.538-5.769-23.076-7.5-35.768-1.154-8.077-2.308-16.73-4.615-24.807-3.461-16.73-9.807-33.46-17.884-48.46l-1.154-8.077zM717.088-13.81l12.115-4.615c6.346 13.269 11.538 27.114 14.423 40.96 1.731 8.077 2.885 16.153 4.615 24.23 1.731 12.115 4.038 25.384 8.077 37.499 8.654 24.807 18.461 50.19 36.922 72.113 4.038 5.769 8.077 10.961 13.269 16.153l0.577 0.577c12.115 9.807 23.653 20.768 25.961 39.806 1.731 19.038 9.807 36.922 22.499 50.767 8.077 8.654 14.999 18.461 20.192 29.422l1.731 4.615c7.5 16.73 14.999 34.037 28.268 47.883 4.038 4.038 7.5 8.077 10.961 12.692 6.346 7.5 12.115 14.999 19.615 21.345 8.654 7.5 18.461 13.846 28.268 20.192 6.346 4.038 12.692 8.654 19.038 12.692 3.461 3.461 5.769 8.077 7.5 12.692 3.461 6.923 6.346 13.269 10.384 19.038 2.885 4.038 6.346 7.5 9.23 10.961 4.038 4.615 8.654 8.654 10.961 13.269 11.538 20.192 21.922 41.537 32.883 65.19 2.308 5.192 4.038 10.961 4.038 16.73 0 3.461 0 6.923 0 10.384 0 13.269 0 27.114 7.5 39.806 2.308 4.038 4.615 8.654 6.346 12.692l2.885 7.5c13.269 33.46 27.691 67.497 47.306 98.65 2.308 3.461 3.461 8.077 3.461 12.692v12.115c0 17.307 0.577 18.461 0 40.96l-5.769 1.731c-1.154 0.577-2.308 0.577-3.461 0-10.961-7.5-23.076-13.269-36.922-8.077l-4.038 1.154c-8.077 2.885-16.73 5.769-25.384 7.5-2.885 0-5.769 0-8.654-1.731-12.692-5.192-25.384-10.384-37.499-16.153-4.038-1.731-4.615-5.192-5.192-12.692 0-9.23-1.154-17.307-6.923-20.768-6.346-3.461-13.269 0.577-21.345 5.192-5.192 3.461-11.538-2.308-15.576-8.077-1.154-1.731-2.308-3.461-4.038-5.192l-8.654-10.384-2.885 10.961c-0.577 2.308-1.154 5.192-1.731 7.5-0.577 2.885-1.154 6.923-2.308 8.077-3.461 2.885-6.346 6.923-8.654 9.807-4.038 5.769-8.077 10.384-13.846 12.115h-0.577c-5.769 2.885-11.538 4.615-17.884 5.769-9.807 1.154-20.768 2.308-29.422 12.692 0 0-1.731 0.577-6.923 1.154-10.384 0.577-20.192 1.154-30.576 1.154l-11.538 0.577c-1.731 0-3.461 0-4.615 0.577l-0.577 0.577c-13.269 7.5-22.499 1.731-35.768-8.654l-1.731-1.731c-2.885-2.308-5.192-4.615-6.923-7.5-5.769-8.077-15.576-11.538-25.384-9.23-9.807 1.154-20.192 2.308-29.999 4.038-16.153 2.308-32.883 4.038-49.614 6.346-13.269 1.731-27.114 2.885-40.383 4.038-10.384 1.154-20.192 1.731-30.576 2.885-11.538 1.154-23.076 2.885-35.191 4.038-12.692 1.731-25.384 2.885-38.075 4.038-6.923 0.577-13.846 1.154-20.192 1.731-6.923 0.577-13.846 1.154-20.768 1.731-9.23 1.154-18.461 2.308-28.268 3.461s-19.615 2.308-29.422 3.461c-8.654 1.154-17.307 1.731-25.961 2.308-4.615 0.577-9.23 0.577-13.846 1.154-10.384 1.154-20.768 1.731-31.73 2.885-13.846 1.154-27.691 2.308-41.537 4.038-9.23 0.577-17.884 1.731-27.114 2.308-6.346 0.577-12.115 1.154-18.461 1.154-10.384 1.154-21.345 1.731-31.73 2.885-16.153 1.154-32.306 2.885-47.883 4.038-13.846 1.154-27.691 1.731-42.114 2.885l-21.922 1.154c-0.577-4.615-0.577-8.077-1.154-11.538-0.577-4.615-0.577-9.807-1.154-17.884-1.154-28.268-2.885-56.536-4.615-88.266-0.577-9.23-1.154-18.461-1.731-27.114-0.577-7.5-1.154-14.999-1.731-22.499-1.154-14.999-1.731-29.422-2.308-44.421s-1.731-29.422-2.885-44.421c-0.577-9.23-1.154-17.884-1.731-27.114-0.577-7.5-1.154-14.999-1.731-22.499-1.154-14.999-1.731-29.422-2.308-44.421s-1.731-29.422-2.885-44.421c-0.577-8.077-1.154-20.192-1.731-32.306-0.577-10.961-1.154-21.345-1.731-29.422l8.077-8.654c6.346-2.308 12.692-5.192 18.461-8.077l0.577-0.577c8.077-5.769 19.038-5.769 27.691-0.577 2.885 1.731 5.769 2.308 9.23 2.308h0.577c17.884-4.038 31.73-18.461 35.768-36.345 0.577-2.308 1.731-5.192 3.461-7.5l0.577-0.577c3.461-6.346 6.923-12.692 10.384-19.038l0.577-1.154c0.577-1.731 2.885-2.885 4.615-2.308 1.154 0.577 1.731 1.154 2.308 1.731 1.154 2.885 3.461 5.769 6.923 6.923 3.461 1.731 6.923 1.731 10.384 0.577 0.577 0 1.154-0.577 2.308-1.154 6.346-2.885 12.692-4.615 19.615-5.769 13.269-1.731 12.115-11.538 10.961-16.73-1.154-7.5-1.154-14.423-0.577-21.345 1.154-3.461 2.308-6.346 4.615-8.654l0.577-0.577c2.308-4.038 5.192-8.654 8.654-12.115 2.885-3.461 5.769-6.346 9.23-8.654 4.615-2.885 9.23-5.769 13.846-8.077 8.654-5.192 17.307-10.384 25.384-16.73l0.577-0.577c5.769-6.346 9.807-13.846 11.538-21.922 4.038-11.538 12.692-21.345 23.076-27.114 1.154-0.577 4.615 0.577 6.923 1.154s5.192 1.154 7.5 1.731c1.731 0 2.308 0.577 2.308 0.577 0 0.577 0 2.885 0 4.038 0 1.731 0 2.885 0 4.615v10.384l4.038 1.154c13.846 4.038 25.384-0.577 36.922-5.192l1.154-0.577c10.961-4.038 22.499-8.077 34.037-11.538 5.769-1.731 11.538-3.461 17.307-5.769l1.731-0.577c1.154-0.577 2.308-0.577 3.461-1.154 1.731-0.577 3.461-1.154 4.615-1.731 1.731-0.577 4.615-1.731 5.769-1.731 16.153 4.615 31.73 0 44.998-4.038h0.577c6.346-1.731 11.538-1.154 17.884 0 3.461 0.577 6.923 1.154 10.961 1.154 12.115-0.577 23.653-2.885 35.191-5.769 5.192-0.577 6.923-8.077 7.5-11.538 0-2.308 0-5.192 0-7.5 0-8.077 0-14.999 4.615-20.768l0.577-1.154c2.308-4.038 2.308-9.23 0.577-13.846-4.038-9.807-1.154-16.153 10.384-23.653 27.114-17.884 54.229-35.768 80.766-53.652 2.885-2.308 5.769-4.038 8.654-6.346 5.192-1.154 8.077-3.461 10.384-5.192zM252.683 275.218v0 0z" />
<glyph unicode="&#xe917;" horiz-adv-x="1218" d="M724.011 155.223c0 0 9.23 78.459 7.5 80.189s-7.5 5.769-7.5 8.654 2.885 3.461-4.038 5.192-17.307 2.885-19.038 7.5 5.192 8.077 0 8.654-11.538-14.999-12.692-17.307-2.308-2.885-6.346 1.731-8.654 2.885-11.538 4.615-1.731 0.577-5.769-1.731-8.077-4.615-6.923-8.654c0.577-6.923-1.731-13.269-6.346-18.461l31.153-70.382h41.537z" />
<glyph unicode="&#xe918;" horiz-adv-x="1218" d="M747.087 381.945c0 1.154 0 2.308 0 3.461 0 30.576-24.807 55.383-55.383 55.383s-55.383-24.807-55.383-55.383c0-1.154 0-2.308 0-3.461 1.731-55.383 55.383-125.765 55.383-125.765s53.652 70.382 55.383 125.765z" />
<glyph unicode="&#xe919;" horiz-adv-x="1218" d="M722.857 384.829c0-17.205-13.948-31.153-31.153-31.153s-31.153 13.948-31.153 31.153c0 17.205 13.948 31.153 31.153 31.153s31.153-13.948 31.153-31.153z" />
<glyph unicode="&#xe91a;" horiz-adv-x="1218" d="M734.395-32.27l-23.076 8.654c-2.885 1.731-5.769 4.038-8.654 6.346s-5.769 4.038-8.654 6.346c-26.537 17.884-53.652 35.768-80.189 53.652-10.961 7.5-22.499 18.461-14.999 37.499 0.577 1.154 0.577 2.885 0 4.038-7.5 8.654-6.923 19.038-6.923 27.691 0 2.308 0 4.615 0 6.923 0 0.577 0 1.154-0.577 1.731-9.807 2.885-20.192 4.615-30.576 5.192-2.885 0-5.769-0.577-9.23-1.154-6.923-1.154-14.423-2.308-23.076 0.577h-1.154c-12.692 4.038-25.384 8.077-38.652 4.038-4.615-1.154-8.654 0.577-12.692 1.731-1.154 0.577-2.308 1.154-3.461 1.154-1.154 0.577-2.885 0.577-4.038 1.154l-1.731 0.577c-5.769 1.731-11.538 3.461-17.307 5.769-11.538 3.461-23.653 7.5-35.191 12.115l-1.154 0.577c-8.654 3.461-16.153 6.923-24.807 5.769v-1.731c0-1.731 0-2.308 0-3.461 0-4.615 0.577-14.999-12.115-16.73-1.731 0-4.038-0.577-5.769-1.154-5.192-1.154-10.961-2.885-15.576 0-13.269 6.923-24.23 19.038-28.845 34.037v0.577c-1.154 6.346-4.038 12.115-8.077 16.153-7.5 5.769-15.576 10.384-23.653 15.576-4.615 2.885-9.807 5.769-14.423 8.654-4.615 3.461-8.654 6.923-12.115 10.961s-6.346 8.654-9.23 13.269c-2.885 4.038-5.192 8.654-6.346 13.269v1.154c-0.577 8.077-0.577 16.153 0.577 24.23 0 1.154 0.577 2.885 0.577 3.461-0.577 0-1.154 0-1.731 0.577-8.077 1.154-15.576 3.461-23.076 6.923l-0.577 0.577c-0.577 0.577-1.154 0-1.731 0 0 0-0.577-0.577-1.154-1.154-1.731-4.038-5.192-6.923-9.23-8.077-7.5-2.885-16.153 1.154-19.038 8.654-3.461 6.346-6.923 12.115-10.384 18.461-2.308 3.461-4.038 6.923-5.192 10.961-2.885 13.846-13.269 24.23-26.537 27.691-0.577 0-1.154 0-1.731-0.577-12.692-7.5-27.691-6.923-39.806 1.154-5.769 2.885-12.115 5.769-18.461 8.077l-1.154 0.577-13.846 14.423v2.308c0.577 8.077 1.154 20.192 1.731 31.73 0.577 12.115 1.154 24.23 1.731 32.306 1.154 14.999 1.731 29.422 2.308 44.421s1.731 29.422 2.885 44.421c0.577 7.5 1.154 14.999 1.731 22.499 0.577 9.23 1.154 17.884 1.731 27.114 1.154 14.999 1.731 29.422 2.308 44.421s1.731 29.422 2.885 44.421c0.577 7.5 1.154 14.999 1.731 22.499 0.577 9.23 1.154 17.884 1.731 27.114 1.731 31.153 3.461 59.421 4.615 88.266 0.577 8.654 1.154 13.269 1.154 18.461 0.577 4.615 0.577 9.23 1.154 17.307l0.577 5.769 33.46-1.731c14.423-1.154 28.268-1.731 42.114-2.885 16.153-1.154 32.306-2.885 47.883-4.038 10.384-1.154 20.768-1.731 31.73-2.885 5.769-0.577 12.115-1.154 17.884-1.154 9.23-0.577 18.461-1.154 27.114-2.308 13.846-1.154 27.691-2.308 41.537-4.038 10.384-1.154 20.768-1.731 31.73-2.885 4.615-0.577 9.23-0.577 13.846-1.154 8.654-0.577 17.884-1.731 26.537-2.308 9.807-1.154 19.615-2.308 29.999-3.461 9.23-1.154 18.461-2.308 27.691-3.461 6.923-0.577 13.846-1.154 20.192-1.731 6.923-0.577 13.846-1.154 20.768-1.731 12.692-1.154 25.384-2.885 38.075-4.038 12.115-1.154 23.653-2.885 35.191-4.038 10.384-1.154 20.192-1.731 30.576-2.885 13.269-1.154 27.114-2.308 40.383-4.038 16.73-1.731 33.46-4.038 49.614-6.346 9.807-1.154 20.192-2.885 29.999-4.038h0.577c5.192-1.154 10.384 0.577 13.269 4.615 2.885 3.461 5.769 6.923 9.23 9.807l1.731 1.154c12.115 9.23 27.691 21.345 47.883 9.807l12.115-0.577c10.384-0.577 20.768-0.577 30.576-1.154 5.192-0.577 11.538-1.154 14.999-5.192 5.192-6.346 11.538-7.5 21.922-8.654h0.577c6.923-1.731 13.846-4.038 20.192-6.923 9.23-3.461 14.423-10.384 19.038-16.153 2.308-2.885 4.615-6.346 6.923-8.654 2.885-2.308 4.038-5.769 5.192-8.654 8.077 9.807 19.038 12.692 27.691 7.5 5.769-3.461 8.654-4.615 9.807-4.615 0.577 1.154 1.154 4.038 1.154 10.961 0 6.346 0.577 17.884 11.538 23.076 12.115 5.769 24.807 10.961 37.499 16.153 4.615 2.308 9.807 2.885 14.423 2.308h0.577c9.23-2.308 17.884-5.192 26.537-8.077l4.038-1.154c9.807-3.461 19.038 1.731 27.114 6.923 4.038 3.461 10.384 3.461 15.576 1.154l11.538-4.038v-4.038c0.577-26.537 0.577-26.537 0-44.998v-12.115c0-6.346-2.308-12.692-5.192-18.461-19.615-30.576-32.883-64.613-46.729-96.919l-2.885-7.5c-1.731-4.615-4.615-9.807-6.923-14.423-5.769-10.384-6.346-21.922-6.346-34.037 0-3.461 0-6.923 0-10.961-0.577-7.5-2.308-14.423-5.192-21.345-10.961-23.653-21.345-44.998-32.883-65.767-3.461-6.346-8.077-10.961-12.692-15.576-2.885-2.885-5.769-6.346-8.077-9.23-3.461-5.192-6.346-10.961-9.23-16.73-2.308-5.769-5.769-11.538-9.807-16.153l-0.577-0.577c-6.346-4.615-13.269-9.23-19.615-13.846-9.23-5.769-18.461-12.115-27.114-19.038-6.923-5.769-12.115-12.692-18.461-19.615-3.461-4.615-7.5-8.654-11.538-13.269-12.115-12.692-19.038-28.268-25.961-44.421l-2.308-4.615c-5.769-12.115-13.269-23.076-21.922-32.306-10.961-12.115-17.884-27.691-19.615-44.421-2.885-23.076-16.73-36.922-29.999-47.306-4.615-4.615-8.077-9.23-11.538-14.423l-0.577-0.577c-17.884-20.192-27.114-44.998-35.191-68.651-4.038-11.538-5.769-23.076-7.5-35.768-1.154-8.077-2.308-16.73-4.615-24.807-3.461-16.73-9.807-33.46-17.884-48.46l-1.154-8.077zM717.088-13.81l12.115-4.615c6.346 13.269 11.538 27.114 14.423 40.96 1.731 8.077 2.885 16.153 4.615 24.23 1.731 12.115 4.038 25.384 8.077 37.499 8.654 24.807 18.461 50.19 36.922 72.113 4.038 5.769 8.077 10.961 13.269 16.153l0.577 0.577c12.115 9.807 23.653 20.768 25.961 39.806 1.731 19.038 9.807 36.922 22.499 50.767 8.077 8.654 14.999 18.461 20.192 29.422l1.731 4.615c7.5 16.73 14.999 34.037 28.268 47.883 4.038 4.038 7.5 8.077 10.961 12.692 6.346 7.5 12.115 14.999 19.615 21.345 8.654 7.5 18.461 13.846 28.268 20.192 6.346 4.038 12.692 8.654 19.038 12.692 3.461 3.461 5.769 8.077 7.5 12.692 3.461 6.923 6.346 13.269 10.384 19.038 2.885 4.038 6.346 7.5 9.23 10.961 4.038 4.615 8.654 8.654 10.961 13.269 11.538 20.192 21.922 41.537 32.883 65.19 2.308 5.192 4.038 10.961 4.038 16.73 0 3.461 0 6.923 0 10.384 0 13.269 0 27.114 7.5 39.806 2.308 4.038 4.615 8.654 6.346 12.692l2.885 7.5c13.269 33.46 27.691 67.497 47.306 98.65 2.308 3.461 3.461 8.077 3.461 12.692v12.115c0 17.307 0.577 18.461 0 40.96l-5.769 1.731c-1.154 0.577-2.308 0.577-3.461 0-10.961-7.5-23.076-13.269-36.922-8.077l-4.038 1.154c-8.077 2.885-16.73 5.769-25.384 7.5-2.885 0-5.769 0-8.654-1.731-12.692-5.192-25.384-10.384-37.499-16.153-4.038-1.731-4.615-5.192-5.192-12.692 0-9.23-1.154-17.307-6.923-20.768-6.346-3.461-13.269 0.577-21.345 5.192-5.192 3.461-11.538-2.308-15.576-8.077-1.154-1.731-2.308-3.461-4.038-5.192l-8.654-10.384-2.885 10.961c-0.577 2.308-1.154 5.192-1.731 7.5-0.577 2.885-1.154 6.923-2.308 8.077-3.461 2.885-6.346 6.923-8.654 9.807-4.038 5.769-8.077 10.384-13.846 12.115h-0.577c-5.769 2.885-11.538 4.615-17.884 5.769-9.807 1.154-20.768 2.308-29.422 12.692 0 0-1.731 0.577-6.923 1.154-10.384 0.577-20.192 1.154-30.576 1.154l-11.538 0.577c-1.731 0-3.461 0-4.615 0.577l-0.577 0.577c-13.269 7.5-22.499 1.731-35.768-8.654l-1.731-1.731c-2.885-2.308-5.192-4.615-6.923-7.5-5.769-8.077-15.576-11.538-25.384-9.23-9.807 1.154-20.192 2.308-29.999 4.038-16.153 2.308-32.883 4.038-49.614 6.346-13.269 1.731-27.114 2.885-40.383 4.038-10.384 1.154-20.192 1.731-30.576 2.885-11.538 1.154-23.076 2.885-35.191 4.038-12.692 1.731-25.384 2.885-38.075 4.038-6.923 0.577-13.846 1.154-20.192 1.731-6.923 0.577-13.846 1.154-20.768 1.731-9.23 1.154-18.461 2.308-28.268 3.461s-19.615 2.308-29.422 3.461c-8.654 1.154-17.307 1.731-25.961 2.308-4.615 0.577-9.23 0.577-13.846 1.154-10.384 1.154-20.768 1.731-31.73 2.885-13.846 1.154-27.691 2.308-41.537 4.038-9.23 0.577-17.884 1.731-27.114 2.308-6.346 0.577-12.115 1.154-18.461 1.154-10.384 1.154-21.345 1.731-31.73 2.885-16.153 1.154-32.306 2.885-47.883 4.038-13.846 1.154-27.691 1.731-42.114 2.885l-21.922 1.154c-0.577-4.615-0.577-8.077-1.154-11.538-0.577-4.615-0.577-9.807-1.154-17.884-1.154-28.268-2.885-56.536-4.615-88.266-0.577-9.23-1.154-18.461-1.731-27.114-0.577-7.5-1.154-14.999-1.731-22.499-1.154-14.999-1.731-29.422-2.308-44.421s-1.731-29.422-2.885-44.421c-0.577-9.23-1.154-17.884-1.731-27.114-0.577-7.5-1.154-14.999-1.731-22.499-1.154-14.999-1.731-29.422-2.308-44.421s-1.731-29.422-2.885-44.421c-0.577-8.077-1.154-20.192-1.731-32.306-0.577-10.961-1.154-21.345-1.731-29.422l8.077-8.654c6.346-2.308 12.692-5.192 18.461-8.077l0.577-0.577c8.077-5.769 19.038-5.769 27.691-0.577 2.885 1.731 5.769 2.308 9.23 2.308h0.577c17.884-4.038 31.73-18.461 35.768-36.345 0.577-2.308 1.731-5.192 3.461-7.5l0.577-0.577c3.461-6.346 6.923-12.692 10.384-19.038l0.577-1.154c0.577-1.731 2.885-2.885 4.615-2.308 1.154 0.577 1.731 1.154 2.308 1.731 1.154 2.885 3.461 5.769 6.923 6.923 3.461 1.731 6.923 1.731 10.384 0.577 0.577 0 1.154-0.577 2.308-1.154 6.346-2.885 12.692-4.615 19.615-5.769 13.269-1.731 12.115-11.538 10.961-16.73-1.154-7.5-1.154-14.423-0.577-21.345 1.154-3.461 2.308-6.346 4.615-8.654l0.577-0.577c2.308-4.038 5.192-8.654 8.654-12.115 2.885-3.461 5.769-6.346 9.23-8.654 4.615-2.885 9.23-5.769 13.846-8.077 8.654-5.192 17.307-10.384 25.384-16.73l0.577-0.577c5.769-6.346 9.807-13.846 11.538-21.922 4.038-11.538 12.692-21.345 23.076-27.114 1.154-0.577 4.615 0.577 6.923 1.154s5.192 1.154 7.5 1.731c1.731 0 2.308 0.577 2.308 0.577 0 0.577 0 2.885 0 4.038 0 1.731 0 2.885 0 4.615v10.384l4.038 1.154c13.846 4.038 25.384-0.577 36.922-5.192l1.154-0.577c10.961-4.038 22.499-8.077 34.037-11.538 5.769-1.731 11.538-3.461 17.307-5.769l1.731-0.577c1.154-0.577 2.308-0.577 3.461-1.154 1.731-0.577 3.461-1.154 4.615-1.731 1.731-0.577 4.615-1.731 5.769-1.731 16.153 4.615 31.73 0 44.998-4.038h0.577c6.346-1.731 11.538-1.154 17.884 0 3.461 0.577 6.923 1.154 10.961 1.154 12.115-0.577 23.653-2.885 35.191-5.769 5.192-0.577 6.923-8.077 7.5-11.538 0-2.308 0-5.192 0-7.5 0-8.077 0-14.999 4.615-20.768l0.577-1.154c2.308-4.038 2.308-9.23 0.577-13.846-4.038-9.807-1.154-16.153 10.384-23.653 27.114-17.884 54.229-35.768 80.766-53.652 2.885-2.308 5.769-4.038 8.654-6.346 5.192-1.154 8.077-3.461 10.384-5.192zM252.683 275.218v0 0z" />
<glyph unicode="&#xe91b;" horiz-adv-x="1218" d="M724.011 155.223c0 0 9.23 78.459 7.5 80.189s-7.5 5.769-7.5 8.654 2.885 3.461-4.038 5.192-17.307 2.885-19.038 7.5 5.192 8.077 0 8.654-11.538-14.999-12.692-17.307-2.308-2.885-6.346 1.731-8.654 2.885-11.538 4.615-1.731 0.577-5.769-1.731-8.077-4.615-6.923-8.654c0.577-6.923-1.731-13.269-6.346-18.461l31.153-70.382h41.537z" />
<glyph unicode="&#xe91c;" horiz-adv-x="1218" d="M747.087 381.945c0 1.154 0 2.308 0 3.461 0 30.576-24.807 55.383-55.383 55.383s-55.383-24.807-55.383-55.383c0-1.154 0-2.308 0-3.461 1.731-55.383 55.383-125.765 55.383-125.765s53.652 70.382 55.383 125.765z" />
<glyph unicode="&#xe91d;" horiz-adv-x="1218" d="M722.857 384.829c0-17.205-13.948-31.153-31.153-31.153s-31.153 13.948-31.153 31.153c0 17.205 13.948 31.153 31.153 31.153s31.153-13.948 31.153-31.153z" />
<glyph unicode="&#xe91e;" glyph-name="icon-cross" d="M71.68-17.92c-5.12 0-15.36 0-20.48 5.12-10.24 10.24-10.24 25.6 0 35.84l424.96 424.96-419.84 419.84c-10.24 10.24-10.24 25.6 0 35.84s25.6 10.24 35.84 0l440.32-440.32c10.24-10.24 10.24-25.6 0-35.84l-440.32-440.32c-5.12 0-15.36-5.12-20.48-5.12zM947.2-17.92c-5.12 0-15.36 0-20.48 5.12l-440.32 440.32c-10.24 10.24-10.24 25.6 0 35.84l440.32 440.32c10.24 10.24 25.6 10.24 35.84 0s10.24-25.6 0-35.84l-419.84-419.84 419.84-419.84c10.24-10.24 10.24-25.6 0-35.84-5.12-5.12-10.24-10.24-15.36-10.24z" />
<glyph unicode="&#xe91f;" glyph-name="icon-facebook-dark" d="M1001.984 806.4c0.040 1.197 0.063 2.604 0.063 4.016 0 70.692-57.308 128-128 128-2.363 0-4.712-0.064-7.044-0.191l-710.075 0.014c-1.734 0.083-3.766 0.13-5.81 0.13-71.541 0-129.536-57.995-129.536-129.536 0-2.387 0.065-4.759 0.192-7.115q-0.014-352.952-0.014-706.232c-0.104-1.95-0.163-4.232-0.163-6.528 0-72.248 58.568-130.816 130.816-130.816 2.038 0 4.065 0.047 6.081 0.139l325.090-0.010c6.656 0 13.568 0 19.968 0v348.16h-80.384c-22.016 0-29.952 8.192-30.208 30.464 0 32.768 0 65.536 0 98.304 0 23.040 8.192 30.976 31.488 31.232h79.872c0 8.96 0 15.872 0 22.784 0 42.24 0 84.992 4.352 128 5.397 79.275 66.975 142.615 144.966 150.725 27.090 2.769 57.728 4.314 88.727 4.314 18.023 0 35.924-0.522 53.689-1.553 12.906 0.114 19.050-11.918 19.050-25.486 0-28.16 0-56.576 0-84.736 0-20.736-8.704-28.928-29.44-29.44s-42.496 0-63.488 0c-1.596 0.171-3.447 0.268-5.322 0.268-29.267 0-52.992-23.725-52.992-52.992 0-1.626 0.073-3.236 0.217-4.825-0.015-30.003-0.015-60.211-0.015-90.163 0-11.776 4.864-15.36 16.384-15.36 36.608 0 73.216 0 109.824 0 22.784 0 31.744-10.24 29.44-32.512-3.584-33.792-7.68-67.584-11.776-102.4-0.671-14.452-12.551-25.915-27.109-25.915-1.455 0-2.884 0.115-4.277 0.335-31.334-0.020-62.822-0.020-94.054-0.020-13.568 0-17.664-4.608-17.664-17.664 0-49.408 0-98.56 0-147.968v0-150.528c0-4.608 0-8.96 0-13.568v0-19.2h204.8c1.392-0.054 3.026-0.084 4.667-0.084 71.541 0 129.536 57.995 129.536 129.536 0 1.38-0.022 2.755-0.064 4.124q-1.275 355.896-1.787 714.296z" />
<glyph unicode="&#xe920;" glyph-name="icon-facebook" d="M662.784-42.24v19.2c0 4.608 0 8.96 0 13.568v150.272c0 49.408 0 98.56 0 147.968 0 13.056 4.096 17.92 17.664 17.664 31.488 0 62.976 0 94.208 0 1.239-0.201 2.668-0.315 4.123-0.315 14.557 0 26.437 11.463 27.106 25.855 4.098 33.852 8.45 67.388 11.778 102.46 2.304 22.272-6.912 32.256-29.44 32.512-36.608 0-73.216 0-109.824 0-11.52 0-16.384 3.584-16.384 15.36 0 30.208 0 60.416 0 90.368-0.128 1.384-0.202 2.993-0.202 4.62 0 29.267 23.725 52.992 52.992 52.992 1.874 0 3.726-0.097 5.55-0.287 21.020 0.019 42.012 0.019 63.26 0.019s29.184 8.448 29.44 29.44c0 28.16 0 56.576 0 84.736 0 14.592-5.888 25.6-21.504 25.6-13.093 0.671-28.427 1.054-43.852 1.054-33.246 0-66.076-1.778-98.402-5.243-74.676-7.82-136.254-71.16-141.623-149.934-5.403-42.229-3.099-84.981-4.379-128.501 0-6.912 0-13.824 0-22.784h-79.104c-23.296 0-31.488-8.192-31.488-31.232 0-32.768 0-65.536 0-98.304 0-22.272 8.192-30.208 30.208-30.464h80.384v-345.088z" />
<glyph unicode="&#xe921;" horiz-adv-x="1218" d="M731.511-5.156c-0.577 0-1.154 0-1.731 0.577l-17.307 6.346c-0.577 0-1.154 0.577-1.154 0.577-2.885 1.731-5.769 4.038-8.654 6.346s-5.769 4.038-8.654 6.346c-26.537 17.884-53.652 35.768-80.189 53.652-10.961 7.5-22.499 18.461-14.999 37.499 0.577 1.154 0.577 2.885 0 4.038-7.5 8.654-6.923 19.038-6.923 27.691 0 2.308 0 4.615 0 6.923 0 0.577 0 1.154-0.577 1.731-9.807 2.885-20.192 4.615-30.576 5.192-2.885 0-5.769-0.577-9.23-1.154-6.923-1.154-14.423-2.308-23.076 0.577h-1.154c-12.692 4.038-25.384 8.077-38.652 4.038-4.615-1.154-8.654 0.577-12.692 1.731-1.154 0.577-2.308 1.154-3.461 1.154-1.154 0.577-2.885 0.577-4.038 1.154l-1.731 0.577c-5.769 1.731-11.538 3.461-17.307 5.769-11.538 3.461-23.653 7.5-35.191 12.115l-1.154 0.577c-8.654 3.461-16.153 6.923-24.807 5.769v-1.731c0-1.731 0-2.308 0-3.461 0-4.615 0.577-14.999-12.115-16.73-1.731 0-4.038-0.577-5.769-1.154-5.192-1.154-10.961-2.885-15.576 0-13.846 6.346-24.23 18.461-29.422 33.46 0 0 0 0.577 0 0.577-1.154 6.346-4.038 11.538-8.077 16.153-7.5 5.769-15.576 10.384-23.653 15.576-4.615 2.885-9.807 5.769-14.423 8.654-4.615 3.461-8.654 6.923-12.115 10.961s-6.346 8.654-9.23 13.269c-2.885 4.038-5.192 8.654-6.346 13.269 0 0.577 0 0.577 0 1.154-0.577 8.077-0.577 16.153 0.577 24.23 0 1.154 0.577 2.885 0.577 3.461-0.577 0-1.154 0-1.731 0.577-8.077 1.154-15.576 4.038-23.076 6.923 0 0-0.577 0-0.577 0.577-1.154 0.577-2.308 0-2.308-0.577-1.731-4.038-5.192-6.923-9.23-8.077s-8.077-1.154-11.538 0.577c-3.461 1.731-6.346 4.615-7.5 8.077-3.461 6.346-6.923 12.115-10.384 18.461-2.308 3.461-4.038 6.923-5.192 10.961-2.885 13.846-13.269 24.23-26.537 27.691-0.577 0-1.154 0-1.731-0.577-12.692-7.5-27.691-6.923-39.806 1.154-5.769 2.885-12.115 5.769-18.461 8.077-0.577 0.577-1.731 0.577-2.308 1.154l-10.961 11.538c-1.154 1.154-1.731 2.885-1.731 4.038 0.577 8.077 1.154 20.192 1.731 32.306s1.154 23.653 1.731 31.73c1.154 14.999 1.731 29.999 2.885 44.421 0.577 14.423 1.731 29.422 2.308 43.845 0.577 7.5 1.154 14.999 1.731 22.499 0.577 9.23 1.154 17.884 1.731 27.114 1.154 14.999 1.731 29.999 2.885 44.421 0.577 14.423 1.731 29.422 2.308 43.845 0.577 7.5 1.154 14.999 1.731 22.499 0.577 9.23 1.154 17.884 1.731 27.114 1.154 14.999 1.731 29.422 2.308 44.421s1.731 29.422 2.885 44.421c0.577 8.654 1.154 13.269 1.154 18.461 0.577 4.615 0.577 9.23 1.154 17.307 0 2.885 2.885 5.769 5.769 5.192l27.691-1.731c14.423-1.154 28.268-1.731 42.114-2.885 16.153-1.154 32.306-2.885 47.883-4.038 10.384-1.154 21.345-1.731 31.73-2.885 5.769-0.577 12.115-1.154 17.884-1.154 9.23-0.577 18.461-1.154 27.114-2.308 13.846-1.154 27.691-2.308 41.537-4.038 10.384-1.154 20.768-1.731 31.73-2.885 4.615-0.577 9.23-0.577 13.846-1.154 8.654-0.577 17.884-1.731 26.537-2.308 9.807-1.154 19.615-2.308 29.999-3.461 9.23-1.154 18.461-2.308 27.691-3.461 6.923-0.577 13.846-1.154 20.192-1.731 6.923-0.577 13.846-1.154 20.768-1.731 12.692-1.154 25.384-2.885 38.075-4.038 12.115-1.154 23.653-2.885 35.191-4.038 10.384-1.154 20.192-1.731 30.576-2.885 13.269-1.154 27.114-2.308 40.383-4.038 16.73-1.731 33.46-4.038 49.614-6.346 9.807-1.154 20.192-2.885 29.999-4.038 0 0 0.577 0 0.577 0 5.192-1.154 10.384 0.577 13.269 4.615 2.885 3.461 5.769 6.923 9.807 9.807l1.731 1.154c12.115 9.23 27.691 21.345 47.883 9.807 0 0 0.577 0 0.577 0l11.538-0.577c10.384-0.577 20.768-0.577 30.576-1.154 5.192-0.577 11.538-1.154 14.999-5.192 5.192-6.346 11.538-7.5 21.922-8.654 0 0 0.577 0 0.577 0 6.923-1.731 13.846-4.038 20.192-6.923 8.654-2.885 13.846-9.807 19.038-16.153 2.308-2.885 4.615-6.346 6.923-8.654 2.885-2.308 4.038-5.769 5.192-8.654 8.077 9.807 19.038 12.692 27.691 7.5 5.769-3.461 8.654-4.615 9.807-4.615 0.577 1.154 1.154 4.038 1.154 10.961 0 6.346 0.577 17.884 11.538 23.076 12.115 5.769 24.807 10.961 37.499 16.153 4.615 2.308 9.807 2.885 14.423 2.308 0 0 0.577 0 0.577 0 9.23-2.308 17.884-5.192 26.537-8.077l4.038-1.154c9.807-3.461 19.038 1.731 27.114 6.923 4.038 3.461 10.384 3.461 15.576 1.154l7.5-2.308c2.308-0.577 4.038-2.885 4.038-5.192 0.577-25.961 0.577-26.537 0.577-44.421v-13.269c0-6.923-2.308-13.269-5.192-18.461-19.615-30.576-32.883-64.613-46.729-96.919l-2.885-7.5c-1.731-4.615-4.615-9.807-6.923-14.423-5.769-10.384-6.346-21.922-6.346-34.037 0-3.461 0-6.923 0-10.961-0.577-7.5-2.308-14.423-5.192-21.345-11.538-23.653-21.345-44.998-32.883-65.767-3.461-6.346-8.077-10.961-12.692-15.576-2.885-2.885-5.769-6.346-8.077-9.23-3.461-5.192-6.346-10.961-9.23-16.73-2.308-5.769-6.346-10.961-10.961-15.576 0 0-0.577-0.577-0.577-0.577-6.346-4.615-13.269-9.23-19.615-13.846-9.23-5.769-18.461-12.115-27.114-19.038-6.923-5.769-12.115-12.692-18.461-19.615-3.461-4.615-7.5-8.654-11.538-13.269-12.115-12.692-19.038-28.268-25.961-44.421l-2.308-4.615c-5.769-12.115-13.269-23.076-21.922-32.306-10.961-12.115-17.884-27.691-19.615-44.421-2.885-23.076-16.73-36.922-29.999-47.306-4.615-4.615-8.077-9.23-11.538-14.423 0 0 0-0.577-0.577-0.577-17.884-20.192-27.114-44.998-35.191-68.651-4.038-11.538-5.769-23.076-7.5-35.768-1.154-8.077-2.308-16.73-4.615-24.807-3.461-16.73-9.807-33.46-17.884-48.46 0-4.615-1.731-5.769-4.038-5.769zM717.088 12.151l12.115-4.615c6.346 13.269 11.538 27.114 14.423 40.96 1.731 8.077 2.885 16.153 4.615 24.23 1.731 12.115 4.038 25.384 8.077 37.499 8.654 24.807 18.461 50.19 36.922 72.113 4.038 5.769 8.077 10.961 13.269 16.153 0 0 0.577 0.577 0.577 0.577 12.115 9.807 23.653 20.768 25.961 39.806 1.731 19.038 9.807 36.922 22.499 50.767 8.077 8.654 14.999 18.461 20.192 29.422l1.731 4.615c7.5 16.73 14.999 34.037 28.268 47.883 4.038 4.038 7.5 8.077 10.961 12.692 6.346 7.5 12.115 14.999 19.615 21.345 8.654 7.5 18.461 13.846 28.268 20.192 6.346 4.038 12.692 8.654 19.038 13.269 3.461 3.461 6.346 7.5 8.077 12.115 2.885 6.346 6.346 12.692 10.384 18.461 2.885 4.038 6.346 7.5 9.23 10.961 4.038 4.615 8.654 8.654 10.961 13.269 11.538 20.192 21.922 41.537 32.883 65.19 2.308 5.192 4.038 10.961 4.038 16.73 0 3.461 0 6.923 0 10.384 0 13.269 0 27.114 7.5 39.806 2.308 4.038 4.615 8.654 6.346 12.692l2.885 7.5c13.269 33.46 27.691 67.497 47.306 98.65 2.308 3.461 3.461 8.077 3.461 12.692v13.269c0 16.73 0 18.461-0.577 40.383l-4.615 1.154c-0.577 0-0.577 0.577-1.154 0.577-1.154 0.577-2.308 0.577-3.461 0-10.961-7.5-23.076-13.269-36.922-8.077l-4.038 1.154c-8.077 2.885-16.73 5.769-25.384 7.5-2.885 0.577-5.769 0-8.654-1.731-12.692-5.192-25.384-10.384-37.499-16.153-4.038-1.731-4.615-5.192-5.192-12.692 0-9.23-1.154-17.307-6.923-20.768-6.346-3.461-13.269 0.577-21.345 5.192-5.192 2.885-11.538-2.308-15.576-8.077-1.154-1.731-2.308-3.461-4.038-5.192l-1.154-1.731c-1.154-1.731-3.461-2.308-5.769-2.308-2.308 0.577-4.038 1.731-4.615 4.038s-1.154 5.192-1.731 7.5c-0.577 2.885-1.154 6.923-2.308 8.077-3.461 2.885-6.346 6.923-8.654 10.384-4.038 5.769-8.077 10.384-13.846 12.115-6.346 2.885-12.115 4.615-17.884 5.769-9.807 1.154-21.345 2.308-29.422 12.692 0 0-1.731 0.577-6.923 1.154-10.384 0.577-20.192 1.154-30.576 1.154l-11.538 0.577c-1.154 0-2.885 0-4.615 0.577 0 0-0.577 0-0.577 0.577-13.269 7.5-22.499 1.731-35.768-8.654l-1.731-1.731c-2.885-2.308-5.192-4.615-7.5-7.5-5.769-8.077-15.576-11.538-25.384-9.23-9.807 1.154-20.192 2.308-29.999 4.038-16.153 2.308-32.883 4.038-49.614 6.346-13.269 1.731-27.114 2.885-40.383 4.038-10.384 1.154-20.192 1.731-30.576 2.885-11.538 1.154-23.076 2.885-35.191 4.038-12.692 1.731-25.384 2.885-38.075 4.038-6.923 0.577-13.846 1.154-20.192 1.731-6.923 0.577-13.846 1.154-20.768 1.731-9.23 1.154-18.461 2.308-28.268 3.461s-19.615 2.308-29.422 3.461c-8.654 1.154-17.307 1.731-25.961 2.308-4.615 0.577-9.23 0.577-13.846 1.154-10.384 1.154-20.768 1.731-31.73 2.885-13.846 1.154-27.691 2.308-41.537 4.038-9.23 0.577-17.884 1.731-27.114 2.308-6.346 0.577-12.115 1.154-18.461 1.154-10.384 1.154-21.345 1.731-31.73 2.885-16.153 1.154-31.73 2.885-47.883 4.038-13.846 1.154-27.691 1.731-42.114 2.885l-21.922 1.154c-0.577-4.615-0.577-8.077-1.154-11.538-0.577-4.615-0.577-9.807-1.154-17.884-1.154-14.999-1.731-29.422-2.308-44.421s-1.731-29.422-2.885-44.421c-0.577-9.23-1.154-18.461-1.731-27.114-0.577-7.5-1.154-14.999-1.731-22.499-1.154-14.423-1.731-29.422-2.308-43.845-0.577-14.999-1.731-29.999-2.885-44.421-0.577-9.23-1.154-18.461-1.731-27.114-0.577-7.5-1.154-14.999-1.731-22.499-1.154-14.423-1.731-29.422-2.308-43.845-0.577-14.999-1.731-29.999-2.885-44.421-0.577-8.077-1.154-20.192-1.731-31.73-0.577-10.961-1.154-21.922-1.731-29.999l8.077-8.654c6.346-2.308 12.115-5.192 18.461-8.077 0 0 0.577 0 0.577-0.577 8.077-5.769 19.038-5.769 27.691-0.577 2.885 1.731 5.769 2.308 9.23 2.308 0 0 0.577 0 0.577 0 17.884-4.038 31.73-18.461 35.768-36.345 0.577-2.308 1.731-5.192 3.461-7.5 0 0 0-0.577 0.577-0.577 3.461-6.346 6.923-12.692 10.384-19.038 0-0.577 0.577-0.577 0.577-1.154 0.577-1.731 2.885-2.885 4.615-2.308 1.154 0.577 1.731 1.154 2.308 1.731 2.308 6.346 9.807 9.807 16.73 7.5 0.577 0 1.154-0.577 2.308-1.154 6.346-2.885 12.692-4.615 19.615-5.769 13.269-1.731 12.115-11.538 10.961-16.73-1.154-7.5-1.154-14.423-0.577-21.345 1.154-3.461 2.308-6.346 4.615-8.654 0 0 0.577-0.577 0.577-0.577 2.308-4.038 5.192-8.654 8.654-12.115 2.885-3.461 5.769-6.346 9.23-8.654 4.615-2.885 9.23-5.769 13.846-8.077 8.654-5.192 17.307-10.384 25.384-16.73 0 0 0.577-0.577 0.577-0.577 5.769-6.346 9.807-13.846 11.538-21.922 4.038-11.538 12.692-21.345 23.653-26.537 1.154-0.577 4.615 0.577 6.923 1.154s5.192 1.154 7.5 1.731c1.731 0 2.308 0.577 2.308 0.577 0 0.577 0 2.885 0 4.038 0 1.731 0 2.885 0 4.615v6.346c0 2.308 1.731 4.615 4.038 5.769 13.846 4.038 25.384-0.577 36.922-5.192l1.154-0.577c10.961-4.038 22.499-8.077 34.037-11.538 5.769-1.731 11.538-3.461 17.307-5.769l1.731-0.577c1.154-0.577 2.308-0.577 3.461-1.154 1.731-0.577 3.461-1.154 4.615-1.731 1.731-0.577 4.615-1.731 5.769-1.731 16.153 4.615 31.73 0 44.998-4.038h0.577c6.346-1.731 11.538-1.154 17.884 0 3.461 0.577 6.923 1.154 10.961 1.154 12.115-0.577 23.653-2.885 35.191-5.769 5.192-0.577 6.923-8.077 7.5-11.538 0-2.308 0-5.192 0-7.5 0-8.077 0-14.999 4.615-20.768 0.577-0.577 0.577-0.577 0.577-1.154 2.308-4.038 2.308-9.23 0.577-13.846-4.038-9.807-1.154-16.153 10.384-23.653 27.114-17.884 54.229-35.768 80.766-53.652 2.885-2.308 5.769-4.038 8.654-6.346 5.769-2.885 8.654-5.192 10.961-6.923z" />
<glyph unicode="&#xe922;" horiz-adv-x="1218" d="M624.784 316.178v-18.461c0 0 8.654-5.769 8.654-10.384s-6.346-6.923-1.731-16.153 5.192-15.576 9.807-10.961 9.23 4.038 9.807 5.769c0.577 3.461 1.731 6.346 3.461 9.23 2.308 2.885 6.346 2.885 5.769 6.346s-0.577 3.461 1.731 4.038 9.807 0 9.807 0v12.692l-12.115 0.577 1.731 21.922h13.846c0 0 0.577 10.384 0 10.384h-29.422l-21.345-14.999z" />
<glyph unicode="&#xe923;" horiz-adv-x="1218" d="M706.127 456.942c0 1.154 0 2.308 0 3.461 0 30.576-24.807 55.383-55.383 55.383s-55.383-24.807-55.383-55.383c0-1.154 0-2.308 0-3.461 1.731-55.383 55.383-125.765 55.383-125.765s53.652 70.959 55.383 125.765z" />
<glyph unicode="&#xe924;" horiz-adv-x="1218" d="M681.897 460.403c0-17.205-13.948-31.153-31.153-31.153s-31.153 13.948-31.153 31.153c0 17.205 13.948 31.153 31.153 31.153s31.153-13.948 31.153-31.153z" />
<glyph unicode="&#xe925;" horiz-adv-x="1218" d="M731.511-5.156c-0.577 0-1.154 0-1.731 0.577l-17.307 6.346c-0.577 0-1.154 0.577-1.154 0.577-2.885 1.731-5.769 4.038-8.654 6.346s-5.769 4.038-8.654 6.346c-26.537 17.884-53.652 35.768-80.189 53.652-10.961 7.5-22.499 18.461-14.999 37.499 0.577 1.154 0.577 2.885 0 4.038-7.5 8.654-6.923 19.038-6.923 27.691 0 2.308 0 4.615 0 6.923 0 0.577 0 1.154-0.577 1.731-9.807 2.885-20.192 4.615-30.576 5.192-2.885 0-5.769-0.577-9.23-1.154-6.923-1.154-14.423-2.308-23.076 0.577h-1.154c-12.692 4.038-25.384 8.077-38.652 4.038-4.615-1.154-8.654 0.577-12.692 1.731-1.154 0.577-2.308 1.154-3.461 1.154-1.154 0.577-2.885 0.577-4.038 1.154l-1.731 0.577c-5.769 1.731-11.538 3.461-17.307 5.769-11.538 3.461-23.653 7.5-35.191 12.115l-1.154 0.577c-8.654 3.461-16.153 6.923-24.807 5.769v-1.731c0-1.731 0-2.308 0-3.461 0-4.615 0.577-14.999-12.115-16.73-1.731 0-4.038-0.577-5.769-1.154-5.192-1.154-10.961-2.885-15.576 0-13.846 6.346-24.23 18.461-29.422 33.46 0 0 0 0.577 0 0.577-1.154 6.346-4.038 11.538-8.077 16.153-7.5 5.769-15.576 10.384-23.653 15.576-4.615 2.885-9.807 5.769-14.423 8.654-4.615 3.461-8.654 6.923-12.115 10.961s-6.346 8.654-9.23 13.269c-2.885 4.038-5.192 8.654-6.346 13.269 0 0.577 0 0.577 0 1.154-0.577 8.077-0.577 16.153 0.577 24.23 0 1.154 0.577 2.885 0.577 3.461-0.577 0-1.154 0-1.731 0.577-8.077 1.154-15.576 4.038-23.076 6.923 0 0-0.577 0-0.577 0.577-1.154 0.577-2.308 0-2.308-0.577-1.731-4.038-5.192-6.923-9.23-8.077s-8.077-1.154-11.538 0.577c-3.461 1.731-6.346 4.615-7.5 8.077-3.461 6.346-6.923 12.115-10.384 18.461-2.308 3.461-4.038 6.923-5.192 10.961-2.885 13.846-13.269 24.23-26.537 27.691-0.577 0-1.154 0-1.731-0.577-12.692-7.5-27.691-6.923-39.806 1.154-5.769 2.885-12.115 5.769-18.461 8.077-0.577 0.577-1.731 0.577-2.308 1.154l-10.961 11.538c-1.154 1.154-1.731 2.885-1.731 4.038 0.577 8.077 1.154 20.192 1.731 32.306s1.154 23.653 1.731 31.73c1.154 14.999 1.731 29.999 2.885 44.421 0.577 14.423 1.731 29.422 2.308 43.845 0.577 7.5 1.154 14.999 1.731 22.499 0.577 9.23 1.154 17.884 1.731 27.114 1.154 14.999 1.731 29.999 2.885 44.421 0.577 14.423 1.731 29.422 2.308 43.845 0.577 7.5 1.154 14.999 1.731 22.499 0.577 9.23 1.154 17.884 1.731 27.114 1.154 14.999 1.731 29.422 2.308 44.421s1.731 29.422 2.885 44.421c0.577 8.654 1.154 13.269 1.154 18.461 0.577 4.615 0.577 9.23 1.154 17.307 0 2.885 2.885 5.769 5.769 5.192l27.691-1.731c14.423-1.154 28.268-1.731 42.114-2.885 16.153-1.154 32.306-2.885 47.883-4.038 10.384-1.154 21.345-1.731 31.73-2.885 5.769-0.577 12.115-1.154 17.884-1.154 9.23-0.577 18.461-1.154 27.114-2.308 13.846-1.154 27.691-2.308 41.537-4.038 10.384-1.154 20.768-1.731 31.73-2.885 4.615-0.577 9.23-0.577 13.846-1.154 8.654-0.577 17.884-1.731 26.537-2.308 9.807-1.154 19.615-2.308 29.999-3.461 9.23-1.154 18.461-2.308 27.691-3.461 6.923-0.577 13.846-1.154 20.192-1.731 6.923-0.577 13.846-1.154 20.768-1.731 12.692-1.154 25.384-2.885 38.075-4.038 12.115-1.154 23.653-2.885 35.191-4.038 10.384-1.154 20.192-1.731 30.576-2.885 13.269-1.154 27.114-2.308 40.383-4.038 16.73-1.731 33.46-4.038 49.614-6.346 9.807-1.154 20.192-2.885 29.999-4.038 0 0 0.577 0 0.577 0 5.192-1.154 10.384 0.577 13.269 4.615 2.885 3.461 5.769 6.923 9.807 9.807l1.731 1.154c12.115 9.23 27.691 21.345 47.883 9.807 0 0 0.577 0 0.577 0l11.538-0.577c10.384-0.577 20.768-0.577 30.576-1.154 5.192-0.577 11.538-1.154 14.999-5.192 5.192-6.346 11.538-7.5 21.922-8.654 0 0 0.577 0 0.577 0 6.923-1.731 13.846-4.038 20.192-6.923 8.654-2.885 13.846-9.807 19.038-16.153 2.308-2.885 4.615-6.346 6.923-8.654 2.885-2.308 4.038-5.769 5.192-8.654 8.077 9.807 19.038 12.692 27.691 7.5 5.769-3.461 8.654-4.615 9.807-4.615 0.577 1.154 1.154 4.038 1.154 10.961 0 6.346 0.577 17.884 11.538 23.076 12.115 5.769 24.807 10.961 37.499 16.153 4.615 2.308 9.807 2.885 14.423 2.308 0 0 0.577 0 0.577 0 9.23-2.308 17.884-5.192 26.537-8.077l4.038-1.154c9.807-3.461 19.038 1.731 27.114 6.923 4.038 3.461 10.384 3.461 15.576 1.154l7.5-2.308c2.308-0.577 4.038-2.885 4.038-5.192 0.577-25.961 0.577-26.537 0.577-44.421v-13.269c0-6.923-2.308-13.269-5.192-18.461-19.615-30.576-32.883-64.613-46.729-96.919l-2.885-7.5c-1.731-4.615-4.615-9.807-6.923-14.423-5.769-10.384-6.346-21.922-6.346-34.037 0-3.461 0-6.923 0-10.961-0.577-7.5-2.308-14.423-5.192-21.345-11.538-23.653-21.345-44.998-32.883-65.767-3.461-6.346-8.077-10.961-12.692-15.576-2.885-2.885-5.769-6.346-8.077-9.23-3.461-5.192-6.346-10.961-9.23-16.73-2.308-5.769-6.346-10.961-10.961-15.576 0 0-0.577-0.577-0.577-0.577-6.346-4.615-13.269-9.23-19.615-13.846-9.23-5.769-18.461-12.115-27.114-19.038-6.923-5.769-12.115-12.692-18.461-19.615-3.461-4.615-7.5-8.654-11.538-13.269-12.115-12.692-19.038-28.268-25.961-44.421l-2.308-4.615c-5.769-12.115-13.269-23.076-21.922-32.306-10.961-12.115-17.884-27.691-19.615-44.421-2.885-23.076-16.73-36.922-29.999-47.306-4.615-4.615-8.077-9.23-11.538-14.423 0 0 0-0.577-0.577-0.577-17.884-20.192-27.114-44.998-35.191-68.651-4.038-11.538-5.769-23.076-7.5-35.768-1.154-8.077-2.308-16.73-4.615-24.807-3.461-16.73-9.807-33.46-17.884-48.46 0-4.615-1.731-5.769-4.038-5.769zM717.088 12.151l12.115-4.615c6.346 13.269 11.538 27.114 14.423 40.96 1.731 8.077 2.885 16.153 4.615 24.23 1.731 12.115 4.038 25.384 8.077 37.499 8.654 24.807 18.461 50.19 36.922 72.113 4.038 5.769 8.077 10.961 13.269 16.153 0 0 0.577 0.577 0.577 0.577 12.115 9.807 23.653 20.768 25.961 39.806 1.731 19.038 9.807 36.922 22.499 50.767 8.077 8.654 14.999 18.461 20.192 29.422l1.731 4.615c7.5 16.73 14.999 34.037 28.268 47.883 4.038 4.038 7.5 8.077 10.961 12.692 6.346 7.5 12.115 14.999 19.615 21.345 8.654 7.5 18.461 13.846 28.268 20.192 6.346 4.038 12.692 8.654 19.038 13.269 3.461 3.461 6.346 7.5 8.077 12.115 2.885 6.346 6.346 12.692 10.384 18.461 2.885 4.038 6.346 7.5 9.23 10.961 4.038 4.615 8.654 8.654 10.961 13.269 11.538 20.192 21.922 41.537 32.883 65.19 2.308 5.192 4.038 10.961 4.038 16.73 0 3.461 0 6.923 0 10.384 0 13.269 0 27.114 7.5 39.806 2.308 4.038 4.615 8.654 6.346 12.692l2.885 7.5c13.269 33.46 27.691 67.497 47.306 98.65 2.308 3.461 3.461 8.077 3.461 12.692v13.269c0 16.73 0 18.461-0.577 40.383l-4.615 1.154c-0.577 0-0.577 0.577-1.154 0.577-1.154 0.577-2.308 0.577-3.461 0-10.961-7.5-23.076-13.269-36.922-8.077l-4.038 1.154c-8.077 2.885-16.73 5.769-25.384 7.5-2.885 0.577-5.769 0-8.654-1.731-12.692-5.192-25.384-10.384-37.499-16.153-4.038-1.731-4.615-5.192-5.192-12.692 0-9.23-1.154-17.307-6.923-20.768-6.346-3.461-13.269 0.577-21.345 5.192-5.192 2.885-11.538-2.308-15.576-8.077-1.154-1.731-2.308-3.461-4.038-5.192l-1.154-1.731c-1.154-1.731-3.461-2.308-5.769-2.308-2.308 0.577-4.038 1.731-4.615 4.038s-1.154 5.192-1.731 7.5c-0.577 2.885-1.154 6.923-2.308 8.077-3.461 2.885-6.346 6.923-8.654 10.384-4.038 5.769-8.077 10.384-13.846 12.115-6.346 2.885-12.115 4.615-17.884 5.769-9.807 1.154-21.345 2.308-29.422 12.692 0 0-1.731 0.577-6.923 1.154-10.384 0.577-20.192 1.154-30.576 1.154l-11.538 0.577c-1.154 0-2.885 0-4.615 0.577 0 0-0.577 0-0.577 0.577-13.269 7.5-22.499 1.731-35.768-8.654l-1.731-1.731c-2.885-2.308-5.192-4.615-7.5-7.5-5.769-8.077-15.576-11.538-25.384-9.23-9.807 1.154-20.192 2.308-29.999 4.038-16.153 2.308-32.883 4.038-49.614 6.346-13.269 1.731-27.114 2.885-40.383 4.038-10.384 1.154-20.192 1.731-30.576 2.885-11.538 1.154-23.076 2.885-35.191 4.038-12.692 1.731-25.384 2.885-38.075 4.038-6.923 0.577-13.846 1.154-20.192 1.731-6.923 0.577-13.846 1.154-20.768 1.731-9.23 1.154-18.461 2.308-28.268 3.461s-19.615 2.308-29.422 3.461c-8.654 1.154-17.307 1.731-25.961 2.308-4.615 0.577-9.23 0.577-13.846 1.154-10.384 1.154-20.768 1.731-31.73 2.885-13.846 1.154-27.691 2.308-41.537 4.038-9.23 0.577-17.884 1.731-27.114 2.308-6.346 0.577-12.115 1.154-18.461 1.154-10.384 1.154-21.345 1.731-31.73 2.885-16.153 1.154-31.73 2.885-47.883 4.038-13.846 1.154-27.691 1.731-42.114 2.885l-21.922 1.154c-0.577-4.615-0.577-8.077-1.154-11.538-0.577-4.615-0.577-9.807-1.154-17.884-1.154-14.999-1.731-29.422-2.308-44.421s-1.731-29.422-2.885-44.421c-0.577-9.23-1.154-18.461-1.731-27.114-0.577-7.5-1.154-14.999-1.731-22.499-1.154-14.423-1.731-29.422-2.308-43.845-0.577-14.999-1.731-29.999-2.885-44.421-0.577-9.23-1.154-18.461-1.731-27.114-0.577-7.5-1.154-14.999-1.731-22.499-1.154-14.423-1.731-29.422-2.308-43.845-0.577-14.999-1.731-29.999-2.885-44.421-0.577-8.077-1.154-20.192-1.731-31.73-0.577-10.961-1.154-21.922-1.731-29.999l8.077-8.654c6.346-2.308 12.115-5.192 18.461-8.077 0 0 0.577 0 0.577-0.577 8.077-5.769 19.038-5.769 27.691-0.577 2.885 1.731 5.769 2.308 9.23 2.308 0 0 0.577 0 0.577 0 17.884-4.038 31.73-18.461 35.768-36.345 0.577-2.308 1.731-5.192 3.461-7.5 0 0 0-0.577 0.577-0.577 3.461-6.346 6.923-12.692 10.384-19.038 0-0.577 0.577-0.577 0.577-1.154 0.577-1.731 2.885-2.885 4.615-2.308 1.154 0.577 1.731 1.154 2.308 1.731 2.308 6.346 9.807 9.807 16.73 7.5 0.577 0 1.154-0.577 2.308-1.154 6.346-2.885 12.692-4.615 19.615-5.769 13.269-1.731 12.115-11.538 10.961-16.73-1.154-7.5-1.154-14.423-0.577-21.345 1.154-3.461 2.308-6.346 4.615-8.654 0 0 0.577-0.577 0.577-0.577 2.308-4.038 5.192-8.654 8.654-12.115 2.885-3.461 5.769-6.346 9.23-8.654 4.615-2.885 9.23-5.769 13.846-8.077 8.654-5.192 17.307-10.384 25.384-16.73 0 0 0.577-0.577 0.577-0.577 5.769-6.346 9.807-13.846 11.538-21.922 4.038-11.538 12.692-21.345 23.653-26.537 1.154-0.577 4.615 0.577 6.923 1.154s5.192 1.154 7.5 1.731c1.731 0 2.308 0.577 2.308 0.577 0 0.577 0 2.885 0 4.038 0 1.731 0 2.885 0 4.615v6.346c0 2.308 1.731 4.615 4.038 5.769 13.846 4.038 25.384-0.577 36.922-5.192l1.154-0.577c10.961-4.038 22.499-8.077 34.037-11.538 5.769-1.731 11.538-3.461 17.307-5.769l1.731-0.577c1.154-0.577 2.308-0.577 3.461-1.154 1.731-0.577 3.461-1.154 4.615-1.731 1.731-0.577 4.615-1.731 5.769-1.731 16.153 4.615 31.73 0 44.998-4.038h0.577c6.346-1.731 11.538-1.154 17.884 0 3.461 0.577 6.923 1.154 10.961 1.154 12.115-0.577 23.653-2.885 35.191-5.769 5.192-0.577 6.923-8.077 7.5-11.538 0-2.308 0-5.192 0-7.5 0-8.077 0-14.999 4.615-20.768 0.577-0.577 0.577-0.577 0.577-1.154 2.308-4.038 2.308-9.23 0.577-13.846-4.038-9.807-1.154-16.153 10.384-23.653 27.114-17.884 54.229-35.768 80.766-53.652 2.885-2.308 5.769-4.038 8.654-6.346 5.769-2.885 8.654-5.192 10.961-6.923z" />
<glyph unicode="&#xe926;" horiz-adv-x="1218" d="M624.784 316.178v-18.461c0 0 8.654-5.769 8.654-10.384s-6.346-6.923-1.731-16.153 5.192-15.576 9.807-10.961 9.23 4.038 9.807 5.769c0.577 3.461 1.731 6.346 3.461 9.23 2.308 2.885 6.346 2.885 5.769 6.346s-0.577 3.461 1.731 4.038 9.807 0 9.807 0v12.692l-12.115 0.577 1.731 21.922h13.846c0 0 0.577 10.384 0 10.384h-29.422l-21.345-14.999z" />
<glyph unicode="&#xe927;" horiz-adv-x="1218" d="M706.127 456.942c0 1.154 0 2.308 0 3.461 0 30.576-24.807 55.383-55.383 55.383s-55.383-24.807-55.383-55.383c0-1.154 0-2.308 0-3.461 1.731-55.383 55.383-125.765 55.383-125.765s53.652 70.959 55.383 125.765z" />
<glyph unicode="&#xe928;" horiz-adv-x="1218" d="M681.897 460.403c0-17.205-13.948-31.153-31.153-31.153s-31.153 13.948-31.153 31.153c0 17.205 13.948 31.153 31.153 31.153s31.153-13.948 31.153-31.153z" />
<glyph unicode="&#xe929;" glyph-name="icon-instagram-dark" d="M678.912 776.448q-166.4 3.584-332.8 0c-96-2.048-149.248-55.296-151.296-150.784q-3.584-167.424 0-334.848c2.048-92.672 56.832-146.176 149.248-149.248 56.064-1.792 112.128 0 168.448 0v0c57.344 0 114.944-1.536 172.288 0 0.98-0.025 2.134-0.038 3.291-0.038 47.148 0 88.884 23.174 114.438 58.753 16.353 24.313 25.93 53.733 25.93 85.39 0 1.268-0.015 2.533-0.046 3.793 0.004 111.429 2.052 223.045 0.004 334.661-0.768 96-54.272 150.016-149.504 152.32zM512 258.304c-110.762 0.297-200.438 90.156-200.438 200.959 0 110.987 89.973 200.96 200.96 200.96s200.96-89.973 200.96-200.96c0-0.72-0.004-1.439-0.011-2.157-0.431-109.843-89.665-198.81-199.678-198.81-0.631 0-1.261 0.003-1.89 0.009zM721.152 620.8c-25.993 0.708-46.829 21.812-47.104 47.845 0.567 25.602 21.434 46.118 47.093 46.118 0.364 0 0.727-0.004 1.089-0.012 0.109 0.003 0.301 0.004 0.494 0.004 25.025 0 45.312-20.287 45.312-45.312 0-0.631-0.013-1.26-0.038-1.885-0.141-25.816-21.175-46.761-47.1-46.761-0.18 0-0.36 0.001-0.54 0.003zM513.792 589.056c-0.533 0.008-1.162 0.012-1.792 0.012-71.682 0-129.792-58.11-129.792-129.792s58.11-129.792 129.792-129.792c71.588 0 129.639 57.957 129.792 129.509 0.010 0.624 0.016 1.343 0.016 2.063 0 70.692-57.308 128-128 128-0.006 0-0.011 0-0.017 0zM1001.984 806.4c0.040 1.197 0.063 2.604 0.063 4.016 0 70.692-57.308 128-128 128-2.363 0-4.712-0.064-7.044-0.191l-710.075 0.014c-1.734 0.083-3.766 0.13-5.81 0.13-71.541 0-129.536-57.995-129.536-129.536 0-2.387 0.065-4.759 0.192-7.115q-0.014-352.952-0.014-706.232c-0.104-1.95-0.163-4.232-0.163-6.528 0-72.248 58.568-130.816 130.816-130.816 2.038 0 4.065 0.047 6.081 0.139l708.834-0.010c1.392-0.054 3.026-0.084 4.667-0.084 71.541 0 129.536 57.995 129.536 129.536 0 1.38-0.022 2.755-0.064 4.124q1.029 356.152 0.517 714.552zM899.584 277.76c0-113.108-91.692-204.8-204.8-204.8q-182.016-4.608-364.032 0c-113.108 0-204.8 91.692-204.8 204.8-3.328 122.624-3.072 245.248 0 367.872 1.62 99.096 73.377 180.964 167.705 198.21 21.479 4.286 42.215 6.334 62.951 9.15h312.32c8.192 0 16.64-3.072 25.6-3.584 112.192-2.248 202.552-92.608 204.797-204.588q4.611-185.556 0.003-367.572z" />
<glyph unicode="&#xe92a;" glyph-name="icon-instagram" d="M355.328 850.944h313.6c8.192 0 16.64-3.072 25.6-3.584 112.192-2.248 202.552-92.608 204.797-204.588q4.611-182.228 0.003-364.244c0-113.108-91.692-204.8-204.8-204.8q-182.016-4.608-364.032 0c-113.108 0-204.8 91.692-204.8 204.8-3.328 122.624-3.072 245.248 0 367.872 1.62 99.096 73.377 180.964 167.705 198.21 20.711 1.47 41.447 3.262 61.927 6.334zM512 140.8v0c57.344 0 114.944-1.536 172.288 0 0.98-0.025 2.134-0.038 3.291-0.038 47.148 0 88.884 23.174 114.438 58.753 16.353 24.313 25.93 53.733 25.93 85.39 0 1.268-0.015 2.533-0.046 3.793 0.004 111.429 2.052 223.045 0.004 334.661-1.792 95.488-55.296 149.76-150.528 151.808q-166.4 3.584-332.8 0c-96-2.048-149.248-55.296-151.296-150.784q-3.584-167.424 0-334.848c2.048-92.672 56.832-146.176 149.248-149.248 57.6 0.512 113.92 0.512 169.472 0.512zM311.040 460.288c0.581 110.546 90.33 199.936 200.957 199.936 110.987 0 200.96-89.973 200.96-200.96s-89.971-200.959-200.957-200.96c-0.384-0.003-0.839-0.004-1.293-0.004-110.28 0-199.68 89.4-199.68 199.68 0 0.812 0.005 1.622 0.014 2.431zM512 329.216c0.531-0.008 1.158-0.012 1.786-0.012 71.682 0 129.792 58.11 129.792 129.792s-58.11 129.792-129.792 129.792c-71.228 0-129.055-57.375-129.785-128.43-0.024-0.984-0.037-2.061-0.037-3.141 0-70.692 57.308-128 128-128 0.013 0 0.026 0 0.039 0zM768 667.648c-0.145-25.905-21.178-46.849-47.103-46.849-0.090 0-0.18 0-0.271 0.001-25.98 0.708-46.815 21.812-47.090 47.845 0.567 25.602 21.434 46.118 47.093 46.118 0.364 0 0.727-0.004 1.089-0.012 0.262 0.009 0.633 0.013 1.006 0.013 25.025 0 45.312-20.287 45.312-45.312 0-0.635-0.013-1.266-0.039-1.894z" />
<glyph unicode="&#xe92b;" glyph-name="icon-mail" d="M916.48 104.96h-808.96c-40.96 0-76.8 35.84-76.8 76.8v496.64c0 40.96 35.84 76.8 76.8 76.8h808.96c40.96 0 76.8-35.84 76.8-76.8v-496.64c0-40.96-35.84-76.8-76.8-76.8zM107.52 704c-15.36 0-25.6-15.36-25.6-25.6v-496.64c0-15.36 10.24-25.6 25.6-25.6h808.96c15.36 0 25.6 10.24 25.6 25.6v496.64c0 15.36-10.24 25.6-25.6 25.6h-808.96zM512 263.68c-20.48 0-40.96 10.24-56.32 25.6l-399.36 399.36 35.84 35.84 399.36-399.36c5.12-5.12 10.24-10.24 20.48-10.24 0 0 0 0 0 0 5.12 0 15.36 5.12 20.48 10.24l399.36 399.36 35.84-35.84-399.36-399.36c-15.36-15.36-35.84-25.6-56.32-25.6 0 0 0 0 0 0z" />
<glyph unicode="&#xe92c;" d="M906.24 115.2h-614.4v570.88h645.12c15.36 0 25.6-10.24 25.6-25.6v-488.96c0-30.72-25.6-56.32-56.32-56.32z" />
<glyph unicode="&#xe92d;" d="M906.24 102.4h-627.2v596.48h657.92c20.48 0 38.4-17.92 38.4-38.4v-488.96c0-38.4-30.72-69.12-69.12-69.12zM304.64 128h601.6c23.040 0 43.52 20.48 43.52 43.52v488.96c0 7.68-5.12 12.8-12.8 12.8h-632.32v-545.28z" />
<glyph unicode="&#xe92e;" d="M916.48 115.2h-793.6c-33.28 0-61.44 28.16-61.44 61.44v578.56c0 15.36 10.24 25.6 25.6 25.6h744.96c15.36 0 25.6-10.24 25.6-25.6v-578.56c-2.56-30.72 20.48-58.88 51.2-61.44 5.12 0 5.12 0 7.68 0z" />
<glyph unicode="&#xe92f;" d="M916.48 102.4c0 0-2.56 0 0 0h-793.6c-40.96 0-74.24 33.28-74.24 74.24v578.56c0 20.48 17.92 38.4 38.4 38.4h744.96c23.040 0 38.4-17.92 38.4-38.4v-578.56c-2.56-25.6 15.36-46.080 40.96-48.64 0 0 2.56 0 2.56 0h2.56v-25.6c0 0 0 0 0 0zM87.040 768c-7.68 0-12.8-5.12-12.8-12.8v-578.56c0-28.16 23.040-48.64 48.64-48.64h737.28c-12.8 12.8-17.92 30.72-15.36 51.2v576c0 7.68-5.12 12.8-12.8 12.8h-744.96z" />
<glyph unicode="&#xe930;" d="M273.92 704h28.16l38.4-64v64h20.48v-92.16h-25.6l-40.96 64v-64h-20.48v92.16z" />
<glyph unicode="&#xe931;" d="M378.88 704h61.44v-17.92h-40.96v-17.92h40.96v-17.92h-40.96v-17.92h43.52v-17.92h-64v89.6z" />
<glyph unicode="&#xe932;" d="M450.56 704h23.040l15.36-58.88 17.92 58.88h17.92l17.92-61.44 15.36 61.44h20.48l-25.6-92.16h-15.36l-20.48 64-20.48-64h-17.92l-28.16 92.16z" />
<glyph unicode="&#xe933;" d="M634.88 680.96c-2.56 2.56-5.12 2.56-7.68 5.12s-5.12 2.56-7.68 2.56c-2.56 0-2.56 0-5.12 0s-2.56 0-5.12-2.56c-2.56 0-2.56-2.56-2.56-2.56s-2.56-2.56-2.56-5.12c0-2.56 0-5.12 2.56-5.12 2.56-2.56 5.12-2.56 7.68-2.56s7.68-2.56 10.24-2.56c2.56 0 7.68-2.56 10.24-5.12s5.12-5.12 7.68-7.68 2.56-7.68 2.56-12.8c0-5.12 0-10.24-2.56-12.8s-5.12-7.68-7.68-10.24c-2.56-2.56-7.68-5.12-10.24-5.12-5.12 0-7.68-2.56-12.8-2.56s-10.24 0-15.36 2.56c-5.12 2.56-10.24 5.12-15.36 7.68l15.36 15.36c2.56-2.56 5.12-5.12 7.68-5.12 2.56-2.56 7.68-2.56 10.24-2.56s2.56 0 5.12 0 2.56 0 5.12 2.56c2.56 0 2.56 2.56 2.56 2.56s0 2.56 0 5.12c0 2.56 0 5.12-2.56 7.68s-5.12 2.56-7.68 5.12c-2.56 0-7.68 2.56-10.24 2.56s-7.68 2.56-10.24 5.12c-2.56 2.56-5.12 5.12-7.68 7.68s-2.56 7.68-2.56 12.8c0 5.12 0 10.24 2.56 12.8s5.12 7.68 7.68 10.24c2.56 2.56 7.68 5.12 10.24 5.12 5.12 0 7.68 2.56 12.8 2.56s10.24 0 15.36-2.56c5.12-2.56 10.24-5.12 12.8-7.68l-12.8-20.48z" />
<glyph unicode="&#xe934;" d="M107.52 532.48h701.44v-38.4h-701.44v38.4z" />
<glyph unicode="&#xe935;" d="M107.52 440.32h701.44v-38.4h-701.44v38.4z" />
<glyph unicode="&#xe936;" d="M107.52 348.16h701.44v-38.4h-701.44v38.4z" />
<glyph unicode="&#xe937;" d="M107.52 256h701.44v-38.4h-701.44v38.4z" />
<glyph unicode="&#xe938;" glyph-name="icon-news" d="M870.4 107.52h35.84c30.72 0 56.32 25.6 56.32 56.32v0 488.96c0 15.36-10.24 25.6-25.6 25.6h-76.8l10.24-570.88zM906.24 94.72h-614.4v25.6h614.4c23.040 0 43.52 20.48 43.52 43.52v488.96c0 7.68-5.12 12.8-12.8 12.8h-76.8v25.6h76.8c20.48 0 38.4-17.92 38.4-38.4v-488.96c0-38.4-30.72-69.12-69.12-69.12zM916.48 94.72c0 0 0 0 0 0h-793.6c-40.96 0-74.24 33.28-74.24 74.24v578.56c0 20.48 17.92 38.4 38.4 38.4h744.96c20.48 0 38.4-17.92 38.4-38.4v-578.56c-2.56-25.6 15.36-46.080 40.96-48.64 0 0 2.56 0 2.56 0h2.56v-25.6c0 0 0 0 0 0zM87.040 760.32c-7.68 0-12.8-5.12-12.8-12.8v-578.56c0-28.16 23.040-48.64 48.64-48.64h737.28c-12.8 12.8-17.92 30.72-15.36 51.2v578.56c0 7.68-5.12 12.8-12.8 12.8h-744.96zM273.92 696.32h28.16l38.4-64v64h20.48v-92.16h-25.6l-40.96 64v-64h-20.48v92.16zM378.88 696.32h61.44v-17.92h-40.96v-17.92h40.96v-17.92h-40.96v-17.92h43.52v-17.92h-64v89.6zM450.56 696.32h23.040l15.36-58.88 17.92 58.88h17.92l17.92-61.44 15.36 61.44h20.48l-25.6-92.16h-15.36l-20.48 64-20.48-64h-17.92l-28.16 92.16zM634.88 673.28c-2.56 2.56-5.12 2.56-7.68 5.12s-5.12 2.56-7.68 2.56c-2.56 0-2.56 0-5.12 0s0-2.56-2.56-2.56c-2.56 0-2.56-2.56-2.56-2.56s-2.56-2.56-2.56-5.12c0-2.56 0-5.12 2.56-5.12 2.56-2.56 5.12-2.56 7.68-2.56s7.68-2.56 10.24-2.56c2.56 0 7.68-2.56 10.24-5.12s5.12-5.12 7.68-7.68 2.56-7.68 2.56-12.8c0-5.12 0-10.24-2.56-12.8s-5.12-7.68-7.68-10.24c-2.56-2.56-7.68-5.12-10.24-5.12-5.12 0-7.68-2.56-12.8-2.56s-10.24 0-15.36 2.56c-5.12 2.56-10.24 5.12-15.36 7.68l15.36 15.36c2.56-2.56 5.12-5.12 7.68-5.12 2.56-2.56 7.68-2.56 10.24-2.56s2.56 0 5.12 0 2.56 0 5.12 2.56c2.56 0 2.56 2.56 2.56 2.56s0 2.56 0 5.12c0 2.56 0 5.12-2.56 7.68s-5.12 2.56-7.68 5.12c-2.56 0-7.68 2.56-10.24 2.56s-7.68 2.56-10.24 5.12c-2.56 2.56-5.12 5.12-7.68 7.68s-2.56 7.68-2.56 12.8c0 5.12 0 10.24 2.56 12.8s5.12 7.68 7.68 10.24c2.56 2.56 7.68 5.12 10.24 5.12 5.12 0 7.68 2.56 12.8 2.56s10.24 0 15.36-2.56c5.12-2.56 10.24-5.12 12.8-7.68l-15.36-20.48zM107.52 524.8h701.44v-38.4h-701.44v38.4zM107.52 432.64h701.44v-38.4h-701.44v38.4zM107.52 340.48h701.44v-38.4h-701.44v38.4zM107.52 248.32h701.44v-38.4h-701.44v38.4z" />
<glyph unicode="&#xe939;" glyph-name="icon-newswhite" d="M870.4 115.2h35.84c30.72 0 56.32 25.6 56.32 56.32v0 488.96c0 15.36-10.24 25.6-25.6 25.6h-76.8l10.24-570.88zM906.24 102.4h-614.4v25.6h614.4c23.040 0 43.52 20.48 43.52 43.52v488.96c0 7.68-5.12 12.8-12.8 12.8h-76.8v25.6h76.8c20.48 0 38.4-17.92 38.4-38.4v-488.96c0-38.4-30.72-69.12-69.12-69.12zM916.48 102.4c0 0-2.56 0 0 0h-793.6c-40.96 0-74.24 33.28-74.24 74.24v578.56c0 20.48 17.92 38.4 38.4 38.4h744.96c23.040 0 38.4-17.92 38.4-38.4v-578.56c-2.56-25.6 15.36-46.080 40.96-48.64 0 0 2.56 0 2.56 0h2.56v-25.6c0 0 0 0 0 0zM87.040 768c-7.68 0-12.8-5.12-12.8-12.8v-578.56c0-28.16 23.040-48.64 48.64-48.64h737.28c-12.8 12.8-17.92 30.72-15.36 51.2v576c0 7.68-5.12 12.8-12.8 12.8h-744.96zM273.92 704h28.16l38.4-64v64h20.48v-92.16h-25.6l-40.96 64v-64h-20.48v92.16zM378.88 704h61.44v-17.92h-40.96v-17.92h40.96v-17.92h-40.96v-17.92h43.52v-17.92h-64v89.6zM450.56 704h23.040l15.36-58.88 17.92 58.88h17.92l17.92-61.44 15.36 61.44h20.48l-25.6-92.16h-15.36l-20.48 64-20.48-64h-17.92l-28.16 92.16zM634.88 680.96c-2.56 2.56-5.12 2.56-7.68 5.12s-5.12 2.56-7.68 2.56c-2.56 0-2.56 0-5.12 0s-2.56 0-5.12-2.56c-2.56 0-2.56-2.56-2.56-2.56s-2.56-2.56-2.56-5.12c0-2.56 0-5.12 2.56-5.12 2.56-2.56 5.12-2.56 7.68-2.56s7.68-2.56 10.24-2.56c2.56 0 7.68-2.56 10.24-5.12s5.12-5.12 7.68-7.68 2.56-7.68 2.56-12.8c0-5.12 0-10.24-2.56-12.8s-5.12-7.68-7.68-10.24c-2.56-2.56-7.68-5.12-10.24-5.12-5.12 0-7.68-2.56-12.8-2.56s-10.24 0-15.36 2.56c-5.12 2.56-10.24 5.12-15.36 7.68l15.36 15.36c2.56-2.56 5.12-5.12 7.68-5.12 2.56-2.56 7.68-2.56 10.24-2.56s2.56 0 5.12 0 2.56 0 5.12 2.56c2.56 0 2.56 2.56 2.56 2.56s0 2.56 0 5.12c0 2.56 0 5.12-2.56 7.68s-5.12 2.56-7.68 5.12c-2.56 0-7.68 2.56-10.24 2.56s-7.68 2.56-10.24 5.12c-2.56 2.56-5.12 5.12-7.68 7.68s-2.56 7.68-2.56 12.8c0 5.12 0 10.24 2.56 12.8s5.12 7.68 7.68 10.24c2.56 2.56 7.68 5.12 10.24 5.12 5.12 0 7.68 2.56 12.8 2.56s10.24 0 15.36-2.56c5.12-2.56 10.24-5.12 12.8-7.68l-12.8-20.48zM107.52 532.48h701.44v-38.4h-701.44v38.4zM107.52 440.32h701.44v-38.4h-701.44v38.4zM107.52 348.16h701.44v-38.4h-701.44v38.4zM107.52 256h701.44v-38.4h-701.44v38.4z" />
<glyph unicode="&#xe93a;" horiz-adv-x="1218" d="M766.125 565.976c0 1.154 0 2.308 0 3.461 0 30.576-24.807 55.383-55.383 55.383s-55.383-24.807-55.383-55.383c0-1.154 0-2.308 0-3.461 1.731-55.383 55.383-125.765 55.383-125.765s53.652 70.959 55.383 125.765z" />
<glyph unicode="&#xe93b;" horiz-adv-x="1218" d="M741.895 569.438c0-17.205-13.948-31.153-31.153-31.153s-31.153 13.948-31.153 31.153c0 17.205 13.948 31.153 31.153 31.153s31.153-13.948 31.153-31.153z" />
<glyph unicode="&#xe93c;" horiz-adv-x="1218" d="M731.511 10.42c-0.577 0-1.154 0-1.731 0.577l-17.307 6.346c-0.577 0-1.154 0.577-1.154 0.577-2.885 1.731-5.769 4.038-8.654 6.346s-5.769 4.038-8.654 6.346c-25.961 17.884-53.075 35.768-80.189 53.652-10.961 7.5-22.499 18.461-14.999 37.499 0.577 1.154 0.577 2.885 0 4.038-7.5 8.654-6.923 19.038-6.923 27.691 0 2.308 0 4.615 0 6.923 0 0.577 0 1.154-0.577 1.731-9.807 2.885-20.192 4.615-30.576 5.192-2.885 0-5.769-0.577-9.23-1.154-6.923-1.154-14.423-2.308-23.076 0.577h-0.577c-12.692 4.038-25.384 8.077-38.652 4.038-4.615-1.154-8.654 0.577-12.692 1.731-1.154 0.577-2.308 1.154-3.461 1.154-1.154 0.577-2.885 0.577-4.038 1.154l-1.731 0.577c-5.769 1.731-11.538 3.461-17.307 5.769-11.538 3.461-23.653 7.5-35.191 12.115l-1.154 0.577c-8.654 3.461-16.153 6.923-24.807 5.769v-1.731c0-1.731 0-2.308 0-3.461 0-4.615 0.577-14.999-12.115-16.73-1.731 0-4.038-0.577-5.769-1.154-5.192-1.154-10.961-2.885-15.576 0-13.846 6.923-24.23 19.038-28.845 33.46 0 0 0 0.577 0 0.577-1.154 6.346-4.038 12.115-8.077 16.153-7.5 5.769-15.576 10.384-23.653 15.576-4.615 2.885-9.807 5.769-14.423 8.654-4.615 3.461-8.654 6.923-12.115 10.961s-6.346 8.654-9.23 13.269c-2.885 4.038-5.192 8.654-6.346 13.269 0 0.577 0 0.577 0 1.154-0.577 8.077-0.577 16.153 0.577 24.23 0 1.154 0.577 2.885 0.577 3.461-0.577 0-1.154 0-1.731 0.577-8.077 1.154-15.576 4.038-23.076 6.923 0 0-0.577 0-0.577 0.577-1.154 0.577-2.308 0-2.308-0.577-1.731-4.038-5.192-6.923-9.23-8.077-7.5-2.885-16.153 1.154-19.038 8.654-3.461 6.346-6.923 12.115-10.384 18.461-2.308 3.461-4.038 6.923-5.192 10.961-2.885 13.846-13.269 24.23-26.537 27.691-0.577 0-1.154 0-1.731-0.577-12.115-7.5-27.691-6.923-39.806 1.154-5.769 2.885-12.115 5.769-18.461 8.077-0.577 0.577-1.731 0.577-2.308 1.154l-10.961 11.538c-1.154 1.154-1.731 2.885-1.731 4.038 0.577 8.077 1.154 20.192 1.731 31.73 0.577 12.115 1.154 24.23 1.731 32.306 1.154 14.999 1.731 29.422 2.308 44.421s1.731 29.422 2.885 44.421c0.577 7.5 1.154 14.999 1.731 22.499 0.577 9.23 1.154 17.884 1.731 27.114 1.154 14.999 1.731 29.422 2.308 44.421s1.731 29.422 2.885 44.421c0.577 7.5 1.154 14.999 1.731 22.499 0.577 9.23 1.154 17.884 1.731 27.114 1.731 28.268 3.461 58.267 4.615 88.266 0.577 8.654 1.154 13.846 1.154 18.461 0.577 4.615 0.577 9.23 1.154 17.307 0 2.885 2.885 5.769 5.769 5.192l28.268-1.731c14.423-1.154 27.691-1.731 41.537-2.885 16.153-1.154 32.306-2.885 48.46-4.038 10.384-1.154 20.768-1.731 31.153-2.885 5.769-0.577 12.115-1.154 17.884-1.154 9.23-0.577 18.461-1.154 27.114-2.308 13.846-1.154 27.691-2.308 41.537-4.038 10.384-1.154 20.768-1.731 31.153-2.885 4.615-0.577 9.23-0.577 13.846-1.154 8.654-0.577 17.884-1.731 26.537-2.308 9.807-1.154 19.615-2.308 29.999-3.461 9.23-1.154 18.461-2.308 27.691-3.461 6.923-0.577 13.846-1.154 20.192-1.731 6.923-0.577 13.846-1.154 20.768-1.731 12.692-1.154 25.384-2.885 38.075-4.038 12.115-1.154 23.653-2.885 35.191-4.038 10.384-1.154 20.192-1.731 30.576-2.885 13.269-1.154 27.114-2.308 40.383-4.038 16.73-1.731 33.46-4.038 49.614-6.346 10.384-1.154 20.192-2.885 30.576-4.038 0 0 0.577 0 0.577 0 5.192-1.154 10.384 0.577 13.269 4.615 2.885 3.461 5.769 6.923 9.807 9.807l1.731 1.154c12.115 9.23 27.691 21.345 47.883 9.807l12.115-0.577c10.384-0.577 20.768-0.577 30.576-1.154 5.192-0.577 11.538-1.154 14.999-5.192 5.192-6.346 11.538-7.5 21.922-8.654 0 0 0.577 0 0.577 0 6.923-1.731 13.846-4.038 20.192-6.923 9.23-3.461 14.423-10.384 19.038-16.153 2.308-2.885 4.615-6.346 6.923-8.654 2.885-2.308 4.038-5.769 5.192-8.654 8.077 9.807 19.038 12.692 27.691 7.5 5.769-3.461 8.654-4.615 9.807-4.615 0.577 1.154 1.154 4.038 1.154 10.961 0 6.346 0.577 17.884 11.538 23.076 12.115 5.769 24.807 10.961 37.499 16.153 4.615 2.308 9.807 2.885 14.423 2.308 0 0 0.577 0 0.577 0 9.23-2.308 17.884-5.192 26.537-8.077l4.038-1.154c9.807-3.461 19.038 1.731 27.114 6.923 4.038 3.461 10.384 3.461 15.576 1.154l7.5-2.308c2.308-0.577 4.038-2.885 4.038-5.192 0.577-25.961 0.577-26.537 0.577-44.421v-13.269c0-6.923-2.308-13.269-5.192-18.461-19.615-30.576-32.883-64.613-46.729-96.919l-2.885-7.5c-1.731-4.615-4.615-9.807-6.923-14.423-5.769-10.384-6.346-21.922-6.346-34.037 0-3.461 0-6.923 0-10.961-0.577-7.5-2.308-14.423-5.192-21.345-10.961-23.653-21.345-44.998-32.883-65.767-3.461-6.346-8.077-10.961-12.692-15.576-2.885-2.885-5.769-6.346-8.077-9.23-3.461-5.192-6.346-10.961-9.23-16.73-2.308-5.769-6.346-10.961-10.961-15.576 0 0-0.577-0.577-0.577-0.577-6.346-4.615-13.269-9.23-19.615-13.846-9.23-5.769-18.461-12.115-27.114-19.038-6.923-5.769-12.115-12.692-18.461-19.615-3.461-4.615-7.5-8.654-11.538-13.269-12.115-12.692-19.038-28.268-25.961-44.421l-2.308-4.615c-5.769-12.115-13.269-23.076-21.922-32.306-10.961-12.115-17.884-27.691-19.615-44.421-2.885-23.076-16.73-36.922-29.999-47.306-4.615-4.615-8.077-9.23-11.538-14.423 0 0 0-0.577-0.577-0.577-17.884-20.192-27.114-44.998-35.191-68.651-4.038-11.538-5.769-23.076-7.5-35.768-1.154-8.077-2.308-16.73-4.615-24.807-3.461-16.73-9.807-33.46-17.884-48.46 0-5.192-2.308-6.346-4.615-6.346zM717.088 27.727l12.115-4.615c6.346 13.269 11.538 27.114 14.423 40.96 1.731 8.077 2.885 16.153 4.615 24.23 1.731 12.115 4.038 25.384 8.077 37.499 8.654 24.807 18.461 50.19 36.922 72.113 4.038 5.769 8.077 10.961 13.269 16.153 0 0 0.577 0.577 0.577 0.577 12.115 9.807 23.653 20.768 25.961 39.806 1.731 19.038 9.807 36.922 22.499 50.767 8.077 8.654 14.999 18.461 20.192 29.422l1.731 4.615c7.5 16.73 14.999 34.037 28.268 47.883 4.038 4.038 7.5 8.077 10.961 12.692 6.346 7.5 12.115 14.999 19.615 21.345 8.654 7.5 18.461 13.846 27.691 20.192 6.346 4.038 12.692 8.654 19.038 13.269 3.461 3.461 6.346 7.5 8.077 12.115 2.885 6.346 6.346 12.692 10.384 18.461 2.885 4.038 6.346 7.5 9.23 10.961 4.038 4.615 8.654 8.654 10.961 13.269 11.538 20.768 21.922 41.537 32.883 65.19 2.308 5.192 4.038 10.961 4.038 16.73 0 3.461 0 6.923 0 10.384 0 13.269 0 27.114 7.5 39.806 2.308 4.038 4.615 8.654 6.346 12.692l2.885 7.5c13.269 33.46 27.691 67.497 47.306 98.65 2.308 3.461 3.461 8.077 3.461 12.692v13.269c0 16.73 0 18.461-0.577 40.383l-4.615 1.154c-0.577 0-0.577 0.577-1.154 0.577-1.154 0.577-2.308 0.577-3.461 0-10.961-7.5-23.076-13.269-36.922-8.077l-4.038 1.154c-8.077 2.885-16.73 5.769-25.384 7.5-2.885 0.577-5.769 0-8.654-1.731-12.692-5.192-25.384-10.384-37.499-16.153-4.038-1.731-4.615-5.192-5.192-12.692 0-9.23-1.154-17.307-6.923-20.768-6.346-3.461-13.269 0.577-21.345 5.192-5.192 2.885-11.538-2.308-15.576-8.077-1.154-1.731-2.308-3.461-4.038-5.192l-1.154-1.731c-1.154-1.731-3.461-2.308-5.769-2.308-2.308 0.577-4.038 1.731-4.615 4.038s-1.154 5.192-1.731 7.5c-0.577 2.885-1.154 6.923-2.308 8.077-3.461 2.885-6.346 6.923-8.654 9.807-4.038 5.769-8.077 10.384-13.846 12.115 0 0-0.577 0-0.577 0-5.769 2.885-11.538 4.615-17.884 5.769-9.807 1.154-20.768 2.308-29.422 12.692 0 0-1.731 0.577-6.923 1.154-10.384 0.577-20.192 1.154-30.576 1.154l-11.538 0.577c-1.731 0-3.461 0-4.615 0.577 0 0-0.577 0-0.577 0.577-13.269 7.5-22.499 1.731-35.768-8.654l-1.731-1.731c-2.885-2.308-5.192-4.615-7.5-7.5-5.769-8.077-15.576-11.538-25.384-9.23-9.807 1.154-20.192 2.308-29.999 4.038-16.153 2.308-32.883 4.038-49.037 6.346-13.269 1.731-27.114 2.885-40.383 4.038-10.384 1.154-20.192 1.731-30.576 2.885-11.538 1.154-23.653 2.885-35.191 4.038-12.692 1.731-25.384 2.885-38.075 4.038-6.923 0.577-13.846 1.154-20.192 1.731-6.923 0.577-13.846 1.154-20.768 1.731-9.23 1.154-18.461 2.308-28.268 3.461s-19.615 2.308-29.422 3.461c-8.654 1.154-17.307 1.731-25.961 2.308-4.615 0.577-9.23 0.577-14.423 1.154-10.384 1.154-20.768 1.731-31.153 2.885-13.846 1.154-27.691 2.308-41.537 4.038-9.23 0.577-17.884 1.731-27.114 2.308-5.769 0.577-12.115 1.154-17.884 1.154-10.384 0.577-20.768 1.731-31.153 2.885-16.153 1.154-32.306 2.885-48.46 4.038-13.846 1.154-27.691 1.731-41.537 2.885l-21.922 1.154c-0.577-4.615-0.577-8.077-1.154-11.538-0.577-4.615-0.577-9.807-1.154-17.884-1.154-29.999-2.885-59.998-4.615-88.266-0.577-9.23-1.154-18.461-1.731-27.114-0.577-7.5-1.154-14.999-1.731-22.499-1.154-14.999-1.731-29.422-2.308-44.421s-1.731-29.422-2.885-44.421c-0.577-9.23-1.154-17.884-1.731-27.114-0.577-7.5-1.154-14.999-1.731-22.499-1.154-14.999-1.731-29.422-2.308-44.421s-1.731-29.422-2.885-44.421c-0.577-8.077-1.154-20.192-1.731-32.306-0.577-10.961-1.154-21.345-1.731-29.422l8.077-8.654c6.346-2.308 12.692-5.192 18.461-8.077 0 0 0.577 0 0.577-0.577 8.077-5.769 19.038-5.769 27.691-0.577 2.885 1.731 5.769 2.308 9.23 2.308 0 0 0.577 0 0.577 0 17.884-4.038 31.73-18.461 35.768-36.345 0.577-2.308 1.731-5.192 3.461-7.5 0 0 0-0.577 0.577-0.577 3.461-6.346 6.923-12.692 10.384-19.038 0-0.577 0.577-0.577 0.577-1.154 0.577-1.731 2.885-2.885 4.615-2.308 1.154 0.577 1.731 1.154 2.308 1.731 2.308 6.346 9.807 9.807 16.73 7.5 0.577 0 1.154-0.577 2.308-1.154 6.346-2.885 12.692-5.192 19.615-5.769 13.269-1.731 12.115-11.538 10.961-16.73-1.154-7.5-1.154-14.423-0.577-21.345 1.154-3.461 2.308-6.346 4.615-8.654 0 0 0.577-0.577 0.577-0.577 2.308-4.038 5.192-8.654 8.654-12.115 2.885-3.461 5.769-6.346 9.23-8.654 4.615-2.885 9.23-5.769 13.846-8.077 8.654-5.192 17.307-10.384 25.384-16.73 0 0 0.577-0.577 0.577-0.577 5.769-6.346 9.807-13.846 11.538-21.922 4.038-11.538 12.115-21.345 23.076-27.114 1.154-0.577 4.615 0.577 6.923 1.154s5.192 1.154 7.5 1.731c1.731 0 2.308 0.577 2.308 0.577 0 0.577 0 2.885 0 4.038 0 1.731 0 2.885 0 4.615v6.346c0 2.308 1.731 4.615 4.038 5.769 13.846 4.038 25.384-0.577 36.922-5.192l1.154-0.577c10.961-4.038 22.499-8.077 34.037-11.538 5.769-1.731 11.538-3.461 17.307-5.769l1.731-0.577c1.154-0.577 2.308-0.577 3.461-1.154 1.731-0.577 3.461-1.154 4.615-1.731 1.731-0.577 4.615-1.731 5.769-1.731 16.153 4.615 31.73 0 44.998-4.038h0.577c6.346-1.731 11.538-1.154 17.884 0 3.461 0.577 6.923 1.154 10.961 1.154 12.115-0.577 23.653-2.885 35.191-5.769 5.192-0.577 6.923-8.077 7.5-11.538 0-2.308 0-5.192 0-7.5 0-8.077 0-14.999 4.615-20.768 0.577-0.577 0.577-0.577 0.577-1.154 2.308-4.038 2.308-9.23 0.577-13.846-4.038-9.807-1.154-16.153 10.384-23.653 27.114-17.884 54.229-35.768 80.766-53.652 2.885-2.308 5.769-4.038 8.654-6.346 5.192-1.731 8.077-3.461 10.384-5.192z" />
<glyph unicode="&#xe93d;" horiz-adv-x="1218" d="M730.357 429.251c-0.577 2.308-1.731 4.038-4.038 5.192-2.885 1.154-4.038-2.308-6.346 0s-4.038 2.308-5.769 0.577-5.769-5.769-6.346-1.731-0.577 8.077-2.885 8.077-0.577-6.923-2.885-7.5-0.577-5.769-5.192-4.038-2.885 6.346-5.192 5.192-2.308-7.5 0-11.538c2.308-5.192 1.731-10.961-1.731-16.153-2.885-1.731-3.461-5.769-1.154-8.654 0.577-0.577 0.577-1.154 1.154-1.154 3.461-2.308 2.308-6.346 5.769-8.654s7.5-5.192 2.308-4.615-4.615-2.885-1.154-10.384 5.192-12.115 9.807-8.654c3.461 3.461 8.654 4.615 13.269 2.308 6.923-1.731 13.846 8.077 12.692 13.269s1.731 8.654-2.308 10.961-5.192 2.308-4.038 6.923 4.615 10.384 4.038 12.692 5.192-0.577 2.308 8.654l-2.308 9.23z" />
<glyph unicode="&#xe93e;" horiz-adv-x="1218" d="M766.125 565.976c0 1.154 0 2.308 0 3.461 0 30.576-24.807 55.383-55.383 55.383s-55.383-24.807-55.383-55.383c0-1.154 0-2.308 0-3.461 1.731-55.383 55.383-125.765 55.383-125.765s53.652 70.959 55.383 125.765z" />
<glyph unicode="&#xe93f;" horiz-adv-x="1218" d="M741.895 569.438c0-17.205-13.948-31.153-31.153-31.153s-31.153 13.948-31.153 31.153c0 17.205 13.948 31.153 31.153 31.153s31.153-13.948 31.153-31.153z" />
<glyph unicode="&#xe940;" horiz-adv-x="1218" d="M731.511 10.42c-0.577 0-1.154 0-1.731 0.577l-17.307 6.346c-0.577 0-1.154 0.577-1.154 0.577-2.885 1.731-5.769 4.038-8.654 6.346s-5.769 4.038-8.654 6.346c-25.961 17.884-53.075 35.768-80.189 53.652-10.961 7.5-22.499 18.461-14.999 37.499 0.577 1.154 0.577 2.885 0 4.038-7.5 8.654-6.923 19.038-6.923 27.691 0 2.308 0 4.615 0 6.923 0 0.577 0 1.154-0.577 1.731-9.807 2.885-20.192 4.615-30.576 5.192-2.885 0-5.769-0.577-9.23-1.154-6.923-1.154-14.423-2.308-23.076 0.577h-0.577c-12.692 4.038-25.384 8.077-38.652 4.038-4.615-1.154-8.654 0.577-12.692 1.731-1.154 0.577-2.308 1.154-3.461 1.154-1.154 0.577-2.885 0.577-4.038 1.154l-1.731 0.577c-5.769 1.731-11.538 3.461-17.307 5.769-11.538 3.461-23.653 7.5-35.191 12.115l-1.154 0.577c-8.654 3.461-16.153 6.923-24.807 5.769v-1.731c0-1.731 0-2.308 0-3.461 0-4.615 0.577-14.999-12.115-16.73-1.731 0-4.038-0.577-5.769-1.154-5.192-1.154-10.961-2.885-15.576 0-13.846 6.923-24.23 19.038-28.845 33.46 0 0 0 0.577 0 0.577-1.154 6.346-4.038 12.115-8.077 16.153-7.5 5.769-15.576 10.384-23.653 15.576-4.615 2.885-9.807 5.769-14.423 8.654-4.615 3.461-8.654 6.923-12.115 10.961s-6.346 8.654-9.23 13.269c-2.885 4.038-5.192 8.654-6.346 13.269 0 0.577 0 0.577 0 1.154-0.577 8.077-0.577 16.153 0.577 24.23 0 1.154 0.577 2.885 0.577 3.461-0.577 0-1.154 0-1.731 0.577-8.077 1.154-15.576 4.038-23.076 6.923 0 0-0.577 0-0.577 0.577-1.154 0.577-2.308 0-2.308-0.577-1.731-4.038-5.192-6.923-9.23-8.077-7.5-2.885-16.153 1.154-19.038 8.654-3.461 6.346-6.923 12.115-10.384 18.461-2.308 3.461-4.038 6.923-5.192 10.961-2.885 13.846-13.269 24.23-26.537 27.691-0.577 0-1.154 0-1.731-0.577-12.115-7.5-27.691-6.923-39.806 1.154-5.769 2.885-12.115 5.769-18.461 8.077-0.577 0.577-1.731 0.577-2.308 1.154l-10.961 11.538c-1.154 1.154-1.731 2.885-1.731 4.038 0.577 8.077 1.154 20.192 1.731 31.73 0.577 12.115 1.154 24.23 1.731 32.306 1.154 14.999 1.731 29.422 2.308 44.421s1.731 29.422 2.885 44.421c0.577 7.5 1.154 14.999 1.731 22.499 0.577 9.23 1.154 17.884 1.731 27.114 1.154 14.999 1.731 29.422 2.308 44.421s1.731 29.422 2.885 44.421c0.577 7.5 1.154 14.999 1.731 22.499 0.577 9.23 1.154 17.884 1.731 27.114 1.731 28.268 3.461 58.267 4.615 88.266 0.577 8.654 1.154 13.846 1.154 18.461 0.577 4.615 0.577 9.23 1.154 17.307 0 2.885 2.885 5.769 5.769 5.192l28.268-1.731c14.423-1.154 27.691-1.731 41.537-2.885 16.153-1.154 32.306-2.885 48.46-4.038 10.384-1.154 20.768-1.731 31.153-2.885 5.769-0.577 12.115-1.154 17.884-1.154 9.23-0.577 18.461-1.154 27.114-2.308 13.846-1.154 27.691-2.308 41.537-4.038 10.384-1.154 20.768-1.731 31.153-2.885 4.615-0.577 9.23-0.577 13.846-1.154 8.654-0.577 17.884-1.731 26.537-2.308 9.807-1.154 19.615-2.308 29.999-3.461 9.23-1.154 18.461-2.308 27.691-3.461 6.923-0.577 13.846-1.154 20.192-1.731 6.923-0.577 13.846-1.154 20.768-1.731 12.692-1.154 25.384-2.885 38.075-4.038 12.115-1.154 23.653-2.885 35.191-4.038 10.384-1.154 20.192-1.731 30.576-2.885 13.269-1.154 27.114-2.308 40.383-4.038 16.73-1.731 33.46-4.038 49.614-6.346 10.384-1.154 20.192-2.885 30.576-4.038 0 0 0.577 0 0.577 0 5.192-1.154 10.384 0.577 13.269 4.615 2.885 3.461 5.769 6.923 9.807 9.807l1.731 1.154c12.115 9.23 27.691 21.345 47.883 9.807l12.115-0.577c10.384-0.577 20.768-0.577 30.576-1.154 5.192-0.577 11.538-1.154 14.999-5.192 5.192-6.346 11.538-7.5 21.922-8.654 0 0 0.577 0 0.577 0 6.923-1.731 13.846-4.038 20.192-6.923 9.23-3.461 14.423-10.384 19.038-16.153 2.308-2.885 4.615-6.346 6.923-8.654 2.885-2.308 4.038-5.769 5.192-8.654 8.077 9.807 19.038 12.692 27.691 7.5 5.769-3.461 8.654-4.615 9.807-4.615 0.577 1.154 1.154 4.038 1.154 10.961 0 6.346 0.577 17.884 11.538 23.076 12.115 5.769 24.807 10.961 37.499 16.153 4.615 2.308 9.807 2.885 14.423 2.308 0 0 0.577 0 0.577 0 9.23-2.308 17.884-5.192 26.537-8.077l4.038-1.154c9.807-3.461 19.038 1.731 27.114 6.923 4.038 3.461 10.384 3.461 15.576 1.154l7.5-2.308c2.308-0.577 4.038-2.885 4.038-5.192 0.577-25.961 0.577-26.537 0.577-44.421v-13.269c0-6.923-2.308-13.269-5.192-18.461-19.615-30.576-32.883-64.613-46.729-96.919l-2.885-7.5c-1.731-4.615-4.615-9.807-6.923-14.423-5.769-10.384-6.346-21.922-6.346-34.037 0-3.461 0-6.923 0-10.961-0.577-7.5-2.308-14.423-5.192-21.345-10.961-23.653-21.345-44.998-32.883-65.767-3.461-6.346-8.077-10.961-12.692-15.576-2.885-2.885-5.769-6.346-8.077-9.23-3.461-5.192-6.346-10.961-9.23-16.73-2.308-5.769-6.346-10.961-10.961-15.576 0 0-0.577-0.577-0.577-0.577-6.346-4.615-13.269-9.23-19.615-13.846-9.23-5.769-18.461-12.115-27.114-19.038-6.923-5.769-12.115-12.692-18.461-19.615-3.461-4.615-7.5-8.654-11.538-13.269-12.115-12.692-19.038-28.268-25.961-44.421l-2.308-4.615c-5.769-12.115-13.269-23.076-21.922-32.306-10.961-12.115-17.884-27.691-19.615-44.421-2.885-23.076-16.73-36.922-29.999-47.306-4.615-4.615-8.077-9.23-11.538-14.423 0 0 0-0.577-0.577-0.577-17.884-20.192-27.114-44.998-35.191-68.651-4.038-11.538-5.769-23.076-7.5-35.768-1.154-8.077-2.308-16.73-4.615-24.807-3.461-16.73-9.807-33.46-17.884-48.46 0-5.192-2.308-6.346-4.615-6.346zM717.088 27.727l12.115-4.615c6.346 13.269 11.538 27.114 14.423 40.96 1.731 8.077 2.885 16.153 4.615 24.23 1.731 12.115 4.038 25.384 8.077 37.499 8.654 24.807 18.461 50.19 36.922 72.113 4.038 5.769 8.077 10.961 13.269 16.153 0 0 0.577 0.577 0.577 0.577 12.115 9.807 23.653 20.768 25.961 39.806 1.731 19.038 9.807 36.922 22.499 50.767 8.077 8.654 14.999 18.461 20.192 29.422l1.731 4.615c7.5 16.73 14.999 34.037 28.268 47.883 4.038 4.038 7.5 8.077 10.961 12.692 6.346 7.5 12.115 14.999 19.615 21.345 8.654 7.5 18.461 13.846 27.691 20.192 6.346 4.038 12.692 8.654 19.038 13.269 3.461 3.461 6.346 7.5 8.077 12.115 2.885 6.346 6.346 12.692 10.384 18.461 2.885 4.038 6.346 7.5 9.23 10.961 4.038 4.615 8.654 8.654 10.961 13.269 11.538 20.768 21.922 41.537 32.883 65.19 2.308 5.192 4.038 10.961 4.038 16.73 0 3.461 0 6.923 0 10.384 0 13.269 0 27.114 7.5 39.806 2.308 4.038 4.615 8.654 6.346 12.692l2.885 7.5c13.269 33.46 27.691 67.497 47.306 98.65 2.308 3.461 3.461 8.077 3.461 12.692v13.269c0 16.73 0 18.461-0.577 40.383l-4.615 1.154c-0.577 0-0.577 0.577-1.154 0.577-1.154 0.577-2.308 0.577-3.461 0-10.961-7.5-23.076-13.269-36.922-8.077l-4.038 1.154c-8.077 2.885-16.73 5.769-25.384 7.5-2.885 0.577-5.769 0-8.654-1.731-12.692-5.192-25.384-10.384-37.499-16.153-4.038-1.731-4.615-5.192-5.192-12.692 0-9.23-1.154-17.307-6.923-20.768-6.346-3.461-13.269 0.577-21.345 5.192-5.192 2.885-11.538-2.308-15.576-8.077-1.154-1.731-2.308-3.461-4.038-5.192l-1.154-1.731c-1.154-1.731-3.461-2.308-5.769-2.308-2.308 0.577-4.038 1.731-4.615 4.038s-1.154 5.192-1.731 7.5c-0.577 2.885-1.154 6.923-2.308 8.077-3.461 2.885-6.346 6.923-8.654 9.807-4.038 5.769-8.077 10.384-13.846 12.115 0 0-0.577 0-0.577 0-5.769 2.885-11.538 4.615-17.884 5.769-9.807 1.154-20.768 2.308-29.422 12.692 0 0-1.731 0.577-6.923 1.154-10.384 0.577-20.192 1.154-30.576 1.154l-11.538 0.577c-1.731 0-3.461 0-4.615 0.577 0 0-0.577 0-0.577 0.577-13.269 7.5-22.499 1.731-35.768-8.654l-1.731-1.731c-2.885-2.308-5.192-4.615-7.5-7.5-5.769-8.077-15.576-11.538-25.384-9.23-9.807 1.154-20.192 2.308-29.999 4.038-16.153 2.308-32.883 4.038-49.037 6.346-13.269 1.731-27.114 2.885-40.383 4.038-10.384 1.154-20.192 1.731-30.576 2.885-11.538 1.154-23.653 2.885-35.191 4.038-12.692 1.731-25.384 2.885-38.075 4.038-6.923 0.577-13.846 1.154-20.192 1.731-6.923 0.577-13.846 1.154-20.768 1.731-9.23 1.154-18.461 2.308-28.268 3.461s-19.615 2.308-29.422 3.461c-8.654 1.154-17.307 1.731-25.961 2.308-4.615 0.577-9.23 0.577-14.423 1.154-10.384 1.154-20.768 1.731-31.153 2.885-13.846 1.154-27.691 2.308-41.537 4.038-9.23 0.577-17.884 1.731-27.114 2.308-5.769 0.577-12.115 1.154-17.884 1.154-10.384 0.577-20.768 1.731-31.153 2.885-16.153 1.154-32.306 2.885-48.46 4.038-13.846 1.154-27.691 1.731-41.537 2.885l-21.922 1.154c-0.577-4.615-0.577-8.077-1.154-11.538-0.577-4.615-0.577-9.807-1.154-17.884-1.154-29.999-2.885-59.998-4.615-88.266-0.577-9.23-1.154-18.461-1.731-27.114-0.577-7.5-1.154-14.999-1.731-22.499-1.154-14.999-1.731-29.422-2.308-44.421s-1.731-29.422-2.885-44.421c-0.577-9.23-1.154-17.884-1.731-27.114-0.577-7.5-1.154-14.999-1.731-22.499-1.154-14.999-1.731-29.422-2.308-44.421s-1.731-29.422-2.885-44.421c-0.577-8.077-1.154-20.192-1.731-32.306-0.577-10.961-1.154-21.345-1.731-29.422l8.077-8.654c6.346-2.308 12.692-5.192 18.461-8.077 0 0 0.577 0 0.577-0.577 8.077-5.769 19.038-5.769 27.691-0.577 2.885 1.731 5.769 2.308 9.23 2.308 0 0 0.577 0 0.577 0 17.884-4.038 31.73-18.461 35.768-36.345 0.577-2.308 1.731-5.192 3.461-7.5 0 0 0-0.577 0.577-0.577 3.461-6.346 6.923-12.692 10.384-19.038 0-0.577 0.577-0.577 0.577-1.154 0.577-1.731 2.885-2.885 4.615-2.308 1.154 0.577 1.731 1.154 2.308 1.731 2.308 6.346 9.807 9.807 16.73 7.5 0.577 0 1.154-0.577 2.308-1.154 6.346-2.885 12.692-5.192 19.615-5.769 13.269-1.731 12.115-11.538 10.961-16.73-1.154-7.5-1.154-14.423-0.577-21.345 1.154-3.461 2.308-6.346 4.615-8.654 0 0 0.577-0.577 0.577-0.577 2.308-4.038 5.192-8.654 8.654-12.115 2.885-3.461 5.769-6.346 9.23-8.654 4.615-2.885 9.23-5.769 13.846-8.077 8.654-5.192 17.307-10.384 25.384-16.73 0 0 0.577-0.577 0.577-0.577 5.769-6.346 9.807-13.846 11.538-21.922 4.038-11.538 12.115-21.345 23.076-27.114 1.154-0.577 4.615 0.577 6.923 1.154s5.192 1.154 7.5 1.731c1.731 0 2.308 0.577 2.308 0.577 0 0.577 0 2.885 0 4.038 0 1.731 0 2.885 0 4.615v6.346c0 2.308 1.731 4.615 4.038 5.769 13.846 4.038 25.384-0.577 36.922-5.192l1.154-0.577c10.961-4.038 22.499-8.077 34.037-11.538 5.769-1.731 11.538-3.461 17.307-5.769l1.731-0.577c1.154-0.577 2.308-0.577 3.461-1.154 1.731-0.577 3.461-1.154 4.615-1.731 1.731-0.577 4.615-1.731 5.769-1.731 16.153 4.615 31.73 0 44.998-4.038h0.577c6.346-1.731 11.538-1.154 17.884 0 3.461 0.577 6.923 1.154 10.961 1.154 12.115-0.577 23.653-2.885 35.191-5.769 5.192-0.577 6.923-8.077 7.5-11.538 0-2.308 0-5.192 0-7.5 0-8.077 0-14.999 4.615-20.768 0.577-0.577 0.577-0.577 0.577-1.154 2.308-4.038 2.308-9.23 0.577-13.846-4.038-9.807-1.154-16.153 10.384-23.653 27.114-17.884 54.229-35.768 80.766-53.652 2.885-2.308 5.769-4.038 8.654-6.346 5.192-1.731 8.077-3.461 10.384-5.192z" />
<glyph unicode="&#xe941;" horiz-adv-x="1218" d="M730.357 429.251c-0.577 2.308-1.731 4.038-4.038 5.192-2.885 1.154-4.038-2.308-6.346 0s-4.038 2.308-5.769 0.577-5.769-5.769-6.346-1.731-0.577 8.077-2.885 8.077-0.577-6.923-2.885-7.5-0.577-5.769-5.192-4.038-2.885 6.346-5.192 5.192-2.308-7.5 0-11.538c2.308-5.192 1.731-10.961-1.731-16.153-2.885-1.731-3.461-5.769-1.154-8.654 0.577-0.577 0.577-1.154 1.154-1.154 3.461-2.308 2.308-6.346 5.769-8.654s7.5-5.192 2.308-4.615-4.615-2.885-1.154-10.384 5.192-12.115 9.807-8.654c3.461 3.461 8.654 4.615 13.269 2.308 6.923-1.731 13.846 8.077 12.692 13.269s1.731 8.654-2.308 10.961-5.192 2.308-4.038 6.923 4.615 10.384 4.038 12.692 5.192-0.577 2.308 8.654l-2.308 9.23z" />
<glyph unicode="&#xe942;" glyph-name="icon-pencil-dark" d="M332.8 104.96c-2.56 0-7.68 2.56-10.24 2.56l-148.48 148.48c-5.12 5.12-5.12 12.8 0 17.92l519.68 517.12c5.12 5.12 12.8 5.12 17.92 0l148.48-148.48c2.56-2.56 2.56-5.12 2.56-10.24s-2.56-7.68-2.56-10.24l-519.68-514.56c0-2.56-5.12-2.56-7.68-2.56zM202.24 263.68l130.56-130.56 499.2 499.2-130.56 130.56-499.2-499.2zM906.24 688.64l-148.48 148.48 30.72 30.72c25.6 25.6 69.12 25.6 94.72 0v0l53.76-53.76c25.6-25.6 25.6-69.12 0-94.72v0l-30.72-30.72zM906.24 670.72l-166.4 166.4 40.96 40.96c30.72 30.72 81.92 30.72 112.64 0l53.76-53.76c30.72-30.72 30.72-81.92 0-112.64l-40.96-40.96zM775.68 837.12l130.56-130.56 20.48 23.040c10.24 10.24 15.36 23.040 15.36 38.4s-5.12 28.16-15.36 38.4l-53.76 53.76c-20.48 20.48-56.32 20.48-76.8 0l-20.48-23.040zM61.44-17.92c-2.56 0-7.68 2.56-10.24 2.56-2.56 2.56-5.12 10.24-2.56 15.36l125.44 268.8c2.56 2.56 5.12 7.68 10.24 7.68s7.68 0 10.24-2.56l148.48-148.48c2.56-2.56 5.12-7.68 2.56-10.24 0-5.12-2.56-7.68-7.68-10.24l-271.36-122.88c0 0-2.56 0-5.12 0zM189.44 243.2l-102.4-222.72 222.72 102.4-120.32 120.32zM71.68 2.56l89.6 38.4-51.2 53.76zM791.040 693.76l-524.8-524.8 66.56-51.2 517.12 517.12z" />
<glyph unicode="&#xe943;" d="M312.32 133.12l-112.64 112.64c-10.24 10.24-10.24 25.6 0 35.84l501.76 504.32 148.48-148.48-501.76-504.32c-10.24-7.68-25.6-7.68-35.84 0z" />
<glyph unicode="&#xe944;" d="M330.24 115.2c-10.24 0-20.48 5.12-28.16 10.24v0c0 0 0 0 0 0l-112.64 112.64c-15.36 15.36-15.36 38.4 0 53.76l512 512 166.4-166.4-512-512c-5.12-7.68-15.36-10.24-25.6-10.24zM701.44 768l-491.52-494.080c-5.12-5.12-5.12-12.8 0-17.92l112.64-112.64c5.12-5.12 12.8-5.12 17.92 0l494.080 494.080-133.12 130.56z" />
<glyph unicode="&#xe945;" d="M870.4 657.92l-148.48 148.48 66.56 66.56c25.6 25.6 69.12 25.6 94.72 0v0l53.76-53.76c25.6-25.6 25.6-69.12 0-94.72v0l-66.56-66.56z" />
<glyph unicode="&#xe946;" d="M870.4 640l-10.24 7.68-156.16 158.72 74.24 74.24c30.72 30.72 81.92 30.72 112.64 0l53.76-53.76c15.36-15.36 23.040-35.84 23.040-56.32s-7.68-40.96-23.040-56.32l-74.24-74.24zM739.84 806.4l130.56-130.56 56.32 56.32c10.24 10.24 15.36 23.040 15.36 38.4s-5.12 28.16-15.36 38.4l-53.76 53.76c-20.48 20.48-53.76 20.48-76.8 0l-56.32-56.32z" />
<glyph unicode="&#xe947;" d="M71.68 5.12l271.36 122.88-148.48 148.48z" />
<glyph unicode="&#xe948;" d="M71.68-7.68c-2.56 0-7.68 2.56-10.24 2.56-2.56 2.56-5.12 10.24-2.56 15.36l122.88 271.36c2.56 2.56 5.12 7.68 10.24 7.68s7.68 0 10.24-2.56l148.48-148.48c2.56-2.56 5.12-7.68 2.56-10.24 0-5.12-2.56-7.68-7.68-10.24l-268.8-122.88c-2.56-2.56-5.12-2.56-5.12-2.56zM197.12 253.44l-102.4-222.72 222.72 102.4-120.32 120.32z" />
<glyph unicode="&#xe949;" d="M71.68 5.12l89.6 38.4-51.2 53.76z" />
<glyph unicode="&#xe94a;" d="M806.4 711.68l-522.24-522.24 58.88-61.44 506.88 509.44z" />
<glyph unicode="&#xe94b;" d="M681.241 763.767l48.875 48.875 148.434-148.434-48.875-48.875-148.434 148.434z" />
<glyph unicode="&#xe94c;" d="M829.44 599.040l-166.4 166.4 66.56 66.56 166.4-166.4-66.56-66.56zM698.88 762.88l130.56-130.56 30.72 30.72-130.56 130.56-30.72-30.72z" />
<glyph unicode="&#xe94d;" glyph-name="icon-pencilwhite" d="M332.8 110.080c-2.56 0-7.68 0-10.24 2.56l-148.48 148.48c-2.56 2.56-2.56 5.12-2.56 10.24s2.56 7.68 2.56 10.24l519.68 517.12c5.12 5.12 12.8 5.12 17.92 0l148.48-148.48c5.12-5.12 5.12-12.8 0-17.92l-519.68-517.12c-2.56-2.56-5.12-5.12-7.68-5.12zM202.24 271.36l130.56-130.56 499.2 499.2-130.56 130.56-499.2-499.2zM906.24 696.32l-148.48 148.48 30.72 30.72c25.6 25.6 66.56 25.6 92.16 0l53.76-53.76c25.6-25.6 25.6-69.12 0-94.72v0l-28.16-30.72zM906.24 678.4l-166.4 166.4 40.96 40.96c30.72 30.72 81.92 30.72 112.64 0l53.76-53.76c30.72-30.72 30.72-81.92 0-112.64l-40.96-40.96zM775.68 844.8l130.56-130.56 20.48 20.48c20.48 20.48 20.48 53.76 0 76.8l-53.76 53.76c-20.48 20.48-53.76 20.48-74.24 0l-23.040-20.48zM61.44-12.8c-2.56 0-7.68 2.56-10.24 2.56-2.56 2.56-5.12 10.24-2.56 15.36l122.88 271.36c2.56 2.56 5.12 7.68 10.24 7.68s7.68 0 10.24-2.56l148.48-148.48c2.56-2.56 5.12-7.68 2.56-10.24 0-5.12-2.56-7.68-7.68-10.24l-268.8-122.88c0 0-2.56-2.56-5.12-2.56zM189.44 250.88l-102.4-222.72 222.72 102.4-120.32 120.32zM71.68 10.24l89.6 38.4-51.2 53.76zM791.040 701.44l-524.8-524.8 66.56-53.76 517.12 519.68z" />
<glyph unicode="&#xe94e;" horiz-adv-x="1218" d="M758.625-55.923c-23.076 26.537-20.768 63.459 4.615 83.651 7.5 6.346 17.307 6.346 21.922-2.308 2.885-5.769 3.461-18.461 0-20.768-21.345-13.269-27.691-32.306-25.384-55.383 0-1.731-0.577-3.461-1.154-5.192z" />
</font>
</defs>
</svg>
